<?xml version="1.0" encoding="UTF-8" standalone="no"?>
<!-- Created with Inkscape (http://www.inkscape.org/) -->

<svg
   xmlns:dc="http://purl.org/dc/elements/1.1/"
   xmlns:cc="http://creativecommons.org/ns#"
   xmlns:rdf="http://www.w3.org/1999/02/22-rdf-syntax-ns#"
   xmlns:svg="http://www.w3.org/2000/svg"
   xmlns="http://www.w3.org/2000/svg"
   xmlns:sodipodi="http://sodipodi.sourceforge.net/DTD/sodipodi-0.dtd"
   xmlns:inkscape="http://www.inkscape.org/namespaces/inkscape"
   width="402.90704"
   height="368.54657"
   id="svg13541"
   version="1.1"
   inkscape:version="0.48.4 r9939"
   sodipodi:docname="img45.svg">
  <defs
     id="defs13543">
    <marker
       inkscape:stockid="Arrow1Mstart"
       orient="auto"
       refY="0"
       refX="0"
       id="Arrow1Mstart-2"
       style="overflow:visible">
      <path
         id="path6562-2"
         d="M 0,0 5,-5 -12.5,0 5,5 0,0 z"
         style="fill-rule:evenodd;stroke:#000000;stroke-width:1pt"
         transform="matrix(0.4,0,0,0.4,4,0)"
         inkscape:connector-curvature="0" />
    </marker>
    <marker
       inkscape:stockid="Arrow1Mend"
       orient="auto"
       refY="0"
       refX="0"
       id="Arrow1Mend"
       style="overflow:visible">
      <path
         id="path6565"
         d="M 0,0 5,-5 -12.5,0 5,5 0,0 z"
         style="fill-rule:evenodd;stroke:#000000;stroke-width:1pt"
         transform="matrix(-0.4,0,0,-0.4,-4,0)"
         inkscape:connector-curvature="0" />
    </marker>
    <marker
       inkscape:stockid="Arrow1Mstart"
       orient="auto"
       refY="0"
       refX="0"
       id="Arrow1Mstart"
       style="overflow:visible">
      <path
         id="path6562"
         d="M 0,0 5,-5 -12.5,0 5,5 0,0 z"
         style="fill-rule:evenodd;stroke:#000000;stroke-width:1pt"
         transform="matrix(0.4,0,0,0.4,4,0)"
         inkscape:connector-curvature="0" />
    </marker>
    <marker
       inkscape:stockid="Arrow1Lstart"
       orient="auto"
       refY="0"
       refX="0"
       id="Arrow1Lstart"
       style="overflow:visible">
      <path
         id="path6556"
         d="M 0,0 5,-5 -12.5,0 5,5 0,0 z"
         style="fill-rule:evenodd;stroke:#000000;stroke-width:1pt"
         transform="matrix(0.8,0,0,0.8,10,0)"
         inkscape:connector-curvature="0" />
    </marker>
    <inkscape:path-effect
       is_visible="true"
       id="path-effect2989-3"
       effect="spiro" />
    <inkscape:path-effect
       is_visible="true"
       id="path-effect2989"
       effect="spiro" />
    <marker
       inkscape:stockid="Arrow1Mstart"
       orient="auto"
       refY="0"
       refX="0"
       id="Arrow1Mstart-2-3"
       style="overflow:visible">
      <path
         id="path6562-2-3"
         d="M 0,0 5,-5 -12.5,0 5,5 0,0 z"
         style="fill-rule:evenodd;stroke:#000000;stroke-width:1pt"
         transform="matrix(0.4,0,0,0.4,4,0)"
         inkscape:connector-curvature="0" />
    </marker>
    <marker
       inkscape:stockid="Arrow1Mend"
       orient="auto"
       refY="0"
       refX="0"
       id="Arrow1Mend-4"
       style="overflow:visible">
      <path
         id="path6565-1"
         d="M 0,0 5,-5 -12.5,0 5,5 0,0 z"
         style="fill-rule:evenodd;stroke:#000000;stroke-width:1pt"
         transform="matrix(-0.4,0,0,-0.4,-4,0)"
         inkscape:connector-curvature="0" />
    </marker>
    <marker
       inkscape:stockid="Arrow1Mstart"
       orient="auto"
       refY="0"
       refX="0"
       id="Arrow1Mstart-6"
       style="overflow:visible">
      <path
         id="path6562-6"
         d="M 0,0 5,-5 -12.5,0 5,5 0,0 z"
         style="fill-rule:evenodd;stroke:#000000;stroke-width:1pt"
         transform="matrix(0.4,0,0,0.4,4,0)"
         inkscape:connector-curvature="0" />
    </marker>
    <marker
       inkscape:stockid="Arrow1Lstart"
       orient="auto"
       refY="0"
       refX="0"
       id="Arrow1Lstart-9"
       style="overflow:visible">
      <path
         id="path6556-9"
         d="M 0,0 5,-5 -12.5,0 5,5 0,0 z"
         style="fill-rule:evenodd;stroke:#000000;stroke-width:1pt"
         transform="matrix(0.8,0,0,0.8,10,0)"
         inkscape:connector-curvature="0" />
    </marker>
    <inkscape:path-effect
       is_visible="true"
       id="path-effect2989-3-8"
       effect="spiro" />
    <inkscape:path-effect
       is_visible="true"
       id="path-effect2989-1"
       effect="spiro" />
    <marker
       inkscape:stockid="Arrow1Mstart"
       orient="auto"
       refY="0"
       refX="0"
       id="Arrow1Mstart-2-5"
       style="overflow:visible">
      <path
         id="path6562-2-9"
         d="M 0,0 5,-5 -12.5,0 5,5 0,0 z"
         style="fill-rule:evenodd;stroke:#000000;stroke-width:1pt"
         transform="matrix(0.4,0,0,0.4,4,0)"
         inkscape:connector-curvature="0" />
    </marker>
    <marker
       inkscape:stockid="Arrow1Mend"
       orient="auto"
       refY="0"
       refX="0"
       id="Arrow1Mend-5"
       style="overflow:visible">
      <path
         id="path6565-8"
         d="M 0,0 5,-5 -12.5,0 5,5 0,0 z"
         style="fill-rule:evenodd;stroke:#000000;stroke-width:1pt"
         transform="matrix(-0.4,0,0,-0.4,-4,0)"
         inkscape:connector-curvature="0" />
    </marker>
    <marker
       inkscape:stockid="Arrow1Mstart"
       orient="auto"
       refY="0"
       refX="0"
       id="Arrow1Mstart-65"
       style="overflow:visible">
      <path
         id="path6562-1"
         d="M 0,0 5,-5 -12.5,0 5,5 0,0 z"
         style="fill-rule:evenodd;stroke:#000000;stroke-width:1pt"
         transform="matrix(0.4,0,0,0.4,4,0)"
         inkscape:connector-curvature="0" />
    </marker>
    <marker
       inkscape:stockid="Arrow1Lstart"
       orient="auto"
       refY="0"
       refX="0"
       id="Arrow1Lstart-0"
       style="overflow:visible">
      <path
         id="path6556-0"
         d="M 0,0 5,-5 -12.5,0 5,5 0,0 z"
         style="fill-rule:evenodd;stroke:#000000;stroke-width:1pt"
         transform="matrix(0.8,0,0,0.8,10,0)"
         inkscape:connector-curvature="0" />
    </marker>
    <inkscape:path-effect
       is_visible="true"
       id="path-effect2989-3-4"
       effect="spiro" />
    <inkscape:path-effect
       is_visible="true"
       id="path-effect2989-31"
       effect="spiro" />
  </defs>
  <sodipodi:namedview
     id="base"
     pagecolor="#ffffff"
     bordercolor="#666666"
     borderopacity="1.0"
     inkscape:pageopacity="0.0"
     inkscape:pageshadow="2"
     inkscape:zoom="1.4"
     inkscape:cx="117.54405"
     inkscape:cy="190.45437"
     inkscape:document-units="px"
     inkscape:current-layer="layer1"
     showgrid="false"
     showguides="true"
     inkscape:guide-bbox="true"
     inkscape:object-paths="true"
     inkscape:snap-intersection-paths="true"
     inkscape:object-nodes="true"
     inkscape:snap-smooth-nodes="true"
     inkscape:window-width="1855"
     inkscape:window-height="1056"
     inkscape:window-x="65"
     inkscape:window-y="24"
     inkscape:window-maximized="1"
     fit-margin-top="0"
     fit-margin-left="0"
     fit-margin-right="0"
     fit-margin-bottom="0" />
  <metadata
     id="metadata13546">
    <rdf:RDF>
      <cc:Work
         rdf:about="">
        <dc:format>image/svg+xml</dc:format>
        <dc:type
           rdf:resource="http://purl.org/dc/dcmitype/StillImage" />
        <dc:title></dc:title>
      </cc:Work>
    </rdf:RDF>
  </metadata>
  <g
     inkscape:label="Layer 1"
     inkscape:groupmode="layer"
     id="layer1"
     transform="translate(-128.30881,-332.01747)">
    <path
       style="fill:none;stroke:#000000;stroke-width:2;stroke-linecap:butt;stroke-linejoin:miter;stroke-miterlimit:4;stroke-opacity:1;stroke-dasharray:none;marker-start:url(#Arrow1Mstart)"
       d="m 252.82938,334.51747 0,266.02549"
       id="path2997"
       inkscape:connector-curvature="0"
       sodipodi:nodetypes="cc" />
    <path
       sodipodi:nodetypes="cc"
       inkscape:connector-curvature="0"
       id="path3800"
       d="m 528.71585,600.54296 -275.88647,0"
       style="fill:none;stroke:#000000;stroke-width:2;stroke-linecap:butt;stroke-linejoin:miter;stroke-miterlimit:4;stroke-opacity:1;stroke-dasharray:none;marker-start:url(#Arrow1Mstart)" />
    <text
       xml:space="preserve"
       style="font-size:20px;font-style:normal;font-weight:normal;line-height:125%;letter-spacing:0px;word-spacing:0px;fill:#000000;fill-opacity:1;stroke:none;font-family:Sans"
       x="517.97485"
       y="618.53308"
       id="text3046"
       sodipodi:linespacing="125%"><tspan
         sodipodi:role="line"
         id="tspan3048"
         x="517.97485"
         y="618.53308">x</tspan></text>
    <text
       xml:space="preserve"
       style="font-size:20px;font-style:normal;font-weight:normal;line-height:125%;letter-spacing:0px;word-spacing:0px;fill:#000000;fill-opacity:1;stroke:none;font-family:Sans"
       x="132.91966"
       y="696.40387"
       id="text3050"
       sodipodi:linespacing="125%"><tspan
         sodipodi:role="line"
         id="tspan3052"
         x="132.91966"
         y="696.40387">y</tspan></text>
    <path
       style="fill:none;stroke:#000000;stroke-width:2;stroke-linecap:butt;stroke-linejoin:miter;stroke-miterlimit:4;stroke-opacity:1;stroke-dasharray:none;marker-start:url(#Arrow1Mstart)"
       d="M 130.46013,684.15773 252.82938,600.54296"
       id="path2997-8"
       inkscape:connector-curvature="0"
       sodipodi:nodetypes="cc"
       inkscape:transform-center-y="-25.662863"
       inkscape:transform-center-x="-42.39243" />
    <text
       xml:space="preserve"
       style="font-size:20px;font-style:normal;font-weight:normal;line-height:125%;letter-spacing:0px;word-spacing:0px;fill:#000000;fill-opacity:1;stroke:none;font-family:Sans"
       x="234.74567"
       y="345.43149"
       id="text13537"
       sodipodi:linespacing="125%"><tspan
         sodipodi:role="line"
         id="tspan13539"
         x="234.74567"
         y="345.43149">z</tspan></text>
    <path
       inkscape:connector-curvature="0"
       style="fill:none;stroke:#000000;stroke-width:1;stroke-linecap:round;stroke-linejoin:round;stroke-miterlimit:4;stroke-opacity:1;stroke-dasharray:2, 2;stroke-dashoffset:0"
       d="m 311.7567,406.70917 0,130.71426"
       id="path14989" />
    <path
       sodipodi:nodetypes="cc"
       id="path16000"
       d="m 497.31784,601.28071 -34.87227,23.8408"
       style="fill:none;stroke:#000000;stroke-width:1;stroke-linecap:round;stroke-linejoin:round;stroke-miterlimit:4;stroke-opacity:1;stroke-dasharray:4, 4;stroke-dashoffset:0"
       inkscape:connector-curvature="0" />
    <path
       inkscape:connector-curvature="0"
       style="fill:none;stroke:#000000;stroke-width:1;stroke-linecap:round;stroke-linejoin:round;stroke-miterlimit:4;stroke-opacity:1;stroke-dasharray:4, 4;stroke-dashoffset:0"
       d="m 347.28882,601.28071 -34.87227,23.8408"
       id="path15990"
       sodipodi:nodetypes="cc" />
    <path
       id="path15922"
       d="m 312.41655,625.12151 -49.97098,34.1632"
       style="fill:none;stroke:#000000;stroke-width:1;stroke-linecap:round;stroke-linejoin:round;stroke-miterlimit:4;stroke-opacity:1;stroke-dasharray:none;stroke-dashoffset:0"
       inkscape:connector-curvature="0" />
    <path
       inkscape:connector-curvature="0"
       style="fill:none;stroke:#000000;stroke-width:1;stroke-linecap:round;stroke-linejoin:round;stroke-miterlimit:4;stroke-opacity:1;stroke-dasharray:2, 2;stroke-dashoffset:0"
       d="m 311.7567,537.42343 -49.97098,34.1632"
       id="path13822" />
    <path
       inkscape:connector-curvature="0"
       id="path15924"
       d="m 312.41655,625.12151 150.02902,0"
       style="fill:none;stroke:#000000;stroke-width:1;stroke-linecap:round;stroke-linejoin:round;stroke-miterlimit:4;stroke-opacity:1;stroke-dasharray:none;stroke-dashoffset:0" />
    <path
       style="fill:none;stroke:#000000;stroke-width:1;stroke-linecap:round;stroke-linejoin:round;stroke-miterlimit:4;stroke-opacity:1;stroke-dasharray:2, 2;stroke-dashoffset:0"
       d="m 311.7567,537.42343 150.02902,0"
       id="path13824"
       inkscape:connector-curvature="0" />
    <path
       id="path15926"
       d="m 262.44557,659.28471 150,0"
       style="fill:none;stroke:#000000;stroke-width:1px;stroke-linecap:round;stroke-linejoin:round;stroke-opacity:1"
       inkscape:connector-curvature="0" />
    <path
       inkscape:connector-curvature="0"
       style="fill:none;stroke:#000000;stroke-width:1px;stroke-linecap:round;stroke-linejoin:round;stroke-opacity:1"
       d="m 261.78572,571.58663 150,0"
       id="path14985" />
    <path
       id="path15928"
       d="m 412.44557,659.28471 50,-34.1632"
       style="fill:none;stroke:#000000;stroke-width:1px;stroke-linecap:round;stroke-linejoin:round;stroke-opacity:1"
       inkscape:connector-curvature="0" />
    <path
       inkscape:connector-curvature="0"
       style="fill:none;stroke:#000000;stroke-width:1px;stroke-linecap:round;stroke-linejoin:round;stroke-opacity:1"
       d="m 411.78572,571.58663 50,-34.1632"
       id="path14983" />
    <path
       inkscape:connector-curvature="0"
       style="fill:none;stroke:#000000;stroke-width:1px;stroke-linecap:round;stroke-linejoin:round;stroke-opacity:1"
       d="m 461.78572,537.42343 0,-130.71426"
       id="path14981" />
    <path
       inkscape:connector-curvature="0"
       style="fill:none;stroke:#000000;stroke-width:1px;stroke-linecap:round;stroke-linejoin:round;stroke-opacity:1"
       d="m 461.78572,406.70917 -50,38.57143"
       id="path14979" />
    <path
       inkscape:connector-curvature="0"
       style="fill:none;stroke:#000000;stroke-width:1px;stroke-linecap:round;stroke-linejoin:round;stroke-opacity:1"
       d="m 411.78572,445.2806 -150,0"
       id="path14977" />
    <path
       inkscape:connector-curvature="0"
       style="fill:none;stroke:#000000;stroke-width:1px;stroke-linecap:round;stroke-linejoin:round;stroke-opacity:1"
       d="m 261.78572,445.2806 0,126.30603"
       id="path13816" />
    <path
       style="fill:none;stroke:#000000;stroke-width:1px;stroke-linecap:round;stroke-linejoin:round;stroke-opacity:1"
       d="m 411.78572,445.2806 0,126.30603"
       id="path13818"
       inkscape:connector-curvature="0" />
    <path
       inkscape:connector-curvature="0"
       style="fill:none;stroke:#000000;stroke-width:1px;stroke-linecap:round;stroke-linejoin:round;stroke-opacity:1"
       d="M 261.78572,445.2806 311.7567,406.70917"
       id="path14965" />
    <path
       inkscape:connector-curvature="0"
       style="fill:none;stroke:#000000;stroke-width:1px;stroke-linecap:round;stroke-linejoin:round;stroke-opacity:1"
       d="m 311.7567,406.70917 150.02902,0"
       id="path13820" />
    <g
       id="g15136"
       style="stroke:#000000;stroke-width:1;stroke-miterlimit:4;stroke-opacity:1;stroke-dasharray:none"
       transform="translate(-1.0101525,-6.78571)">
      <path
         id="path14989-9"
         d="m 217.84264,413.49488 0,218.43042"
         style="fill:none;stroke:#000000;stroke-width:1;stroke-linecap:round;stroke-linejoin:round;stroke-miterlimit:4;stroke-opacity:1;stroke-dasharray:none;stroke-dashoffset:0"
         inkscape:connector-curvature="0"
         sodipodi:nodetypes="cc" />
      <path
         id="path13822-3"
         d="m 252.50625,520.51099 -84.63459,57.86135"
         style="fill:none;stroke:#000000;stroke-width:1;stroke-linecap:round;stroke-linejoin:round;stroke-miterlimit:4;stroke-opacity:1;stroke-dasharray:none;stroke-dashoffset:0"
         inkscape:connector-curvature="0"
         sodipodi:nodetypes="cc" />
      <path
         id="path13816-9"
         d="m 167.87166,452.06631 0,214.00411"
         style="fill:none;stroke:#000000;stroke-width:1;stroke-linecap:round;stroke-linejoin:round;stroke-miterlimit:4;stroke-opacity:1;stroke-dasharray:none"
         inkscape:connector-curvature="0"
         sodipodi:nodetypes="cc" />
      <path
         id="path14965-6"
         d="m 167.87166,452.06631 84.38238,-65.13278"
         style="fill:none;stroke:#000000;stroke-width:1;stroke-linecap:round;stroke-linejoin:round;stroke-miterlimit:4;stroke-opacity:1;stroke-dasharray:none"
         inkscape:connector-curvature="0"
         sodipodi:nodetypes="cc" />
    </g>
    <path
       style="fill:none;stroke:#000000;stroke-width:1;stroke-linecap:round;stroke-linejoin:round;stroke-miterlimit:4;stroke-opacity:1;stroke-dasharray:4, 4;stroke-dashoffset:0"
       d="m 311.7567,406.70917 -95.58406,0"
       id="path15722"
       inkscape:connector-curvature="0" />
    <path
       style="fill:none;stroke:#000000;stroke-width:1;stroke-linecap:round;stroke-linejoin:round;stroke-miterlimit:4;stroke-opacity:1;stroke-dasharray:4, 4;stroke-dashoffset:0"
       d="m 261.78572,445.2806 -95.58406,0"
       id="path15722-6"
       inkscape:connector-curvature="0" />
    <path
       style="fill:none;stroke:#000000;stroke-width:1;stroke-linecap:round;stroke-linejoin:round;stroke-miterlimit:4;stroke-opacity:1;stroke-dasharray:4, 4;stroke-dashoffset:0"
       d="m 311.7567,537.42343 -95.58406,0"
       id="path15722-3"
       inkscape:connector-curvature="0" />
    <path
       style="fill:none;stroke:#000000;stroke-width:1;stroke-linecap:round;stroke-linejoin:round;stroke-miterlimit:4;stroke-opacity:1;stroke-dasharray:4, 4;stroke-dashoffset:0"
       d="m 262.44557,571.58663 -95.58406,0"
       id="path15722-9"
       inkscape:connector-curvature="0" />
    <path
       style="fill:#000000;fill-opacity:0.1372549;fill-rule:nonzero;stroke:none"
       d="m 167.46057,507.98414 0,-62.17398 1.50928,0 c 1.22829,0 1.48687,-0.19463 1.38896,-1.04544 -0.0959,-0.83314 4.4954,-4.613 22.60811,-18.61255 l 22.72844,-17.56709 0.13275,17.94738 c 0.10357,14.00232 -0.007,18.04654 -0.50508,18.39846 -0.50842,0.35955 -0.50973,0.50305 -0.006,0.70725 0.49852,0.20228 0.63135,9.84772 0.63135,45.84721 l 0,45.59103 -22.80355,15.60737 c -12.54196,8.58406 -23.4516,16.02745 -24.24367,16.54086 l -1.44011,0.93348 0,-62.17398 z m 7.07107,-62.64924 c 0,-0.79409 -0.9989,-1.1523 -2.30155,-0.82535 -1.83642,0.46091 -1.4918,1.30061 0.53378,1.30061 0.97228,0 1.76777,-0.21387 1.76777,-0.47526 z m 3.91434,-0.15608 c -0.11574,-0.34724 -0.85442,-0.63135 -1.6415,-0.63135 -0.78707,0 -1.52575,0.28411 -1.64149,0.63135 -0.14285,0.42855 0.38442,0.63134 1.64149,0.63134 1.25708,0 1.78435,-0.20279 1.6415,-0.63134 z m 4.16688,0.13589 c 0,-0.62627 -2.2897,-1.22505 -3.00175,-0.78498 -1.07832,0.66644 -0.4866,1.28043 1.23398,1.28043 0.97228,0 1.76777,-0.22295 1.76777,-0.49545 z m 4.04061,0 c 0,-0.62627 -2.2897,-1.22505 -3.00175,-0.78498 -1.07832,0.66644 -0.4866,1.28043 1.23398,1.28043 0.97228,0 1.76777,-0.22295 1.76777,-0.49545 z m 4.04061,0 c 0,-0.62627 -2.2897,-1.22505 -3.00175,-0.78498 -1.07832,0.66644 -0.4866,1.28043 1.23398,1.28043 0.97228,0 1.76777,-0.22295 1.76777,-0.49545 z m 3.40927,-0.13589 c -0.11575,-0.34724 -0.74078,-0.63135 -1.38896,-0.63135 -0.64818,0 -1.27322,0.28411 -1.38896,0.63135 -0.13883,0.41647 0.33391,0.63134 1.38896,0.63134 1.05504,0 1.52778,-0.21487 1.38896,-0.63134 z m 4.04061,0 c -0.11575,-0.34724 -0.74078,-0.63135 -1.38896,-0.63135 -0.64818,0 -1.27322,0.28411 -1.38896,0.63135 -0.13883,0.41647 0.33391,0.63134 1.38896,0.63134 1.05504,0 1.52778,-0.21487 1.38896,-0.63134 z m 4.04061,0 c -0.11575,-0.34724 -0.74078,-0.63135 -1.38896,-0.63135 -0.64818,0 -1.27322,0.28411 -1.38896,0.63135 -0.13883,0.41647 0.33391,0.63134 1.38896,0.63134 1.05505,0 1.52778,-0.21487 1.38896,-0.63134 z m 4.04061,0 c -0.11575,-0.34724 -0.74078,-0.63135 -1.38896,-0.63135 -0.64818,0 -1.27322,0.28411 -1.38896,0.63135 -0.13882,0.41647 0.33391,0.63134 1.38896,0.63134 1.05505,0 1.52778,-0.21487 1.38896,-0.63134 z m 4.04313,0 c -0.31154,-0.94601 -2.14689,-1.0418 -2.88648,-0.15064 -0.56602,0.682 -0.40969,0.78198 1.22271,0.78198 1.27153,0 1.80503,-0.20244 1.66377,-0.63134 z m 4.16436,0.15608 c 0,-0.79409 -0.9989,-1.1523 -2.30155,-0.82535 -1.83643,0.46091 -1.49181,1.30061 0.53378,1.30061 0.97227,0 1.76777,-0.21387 1.76777,-0.47526 z"
       id="path15756"
       inkscape:connector-curvature="0" />
    <text
       xml:space="preserve"
       style="font-size:20px;font-style:normal;font-weight:normal;line-height:125%;letter-spacing:0px;word-spacing:0px;fill:#000000;fill-opacity:1;stroke:none;font-family:Sans"
       x="348.50262"
       y="502.8392"
       id="text15758"
       sodipodi:linespacing="125%"><tspan
         sodipodi:role="line"
         id="tspan15760"
         x="348.50262"
         y="502.8392"
         style="font-size:40px">V</tspan></text>
    <text
       xml:space="preserve"
       style="font-size:40px;font-style:normal;font-weight:normal;line-height:125%;letter-spacing:0px;word-spacing:0px;fill:#000000;fill-opacity:1;stroke:none;font-family:Sans"
       x="177.78685"
       y="508.90012"
       id="text15762"
       sodipodi:linespacing="125%"><tspan
         sodipodi:role="line"
         id="tspan15764"
         x="177.78685"
         y="508.90012">D</tspan></text>
    <path
       inkscape:connector-curvature="0"
       id="path15980"
       d="m 312.41655,625.12151 -95.58406,0"
       style="fill:none;stroke:#000000;stroke-width:1;stroke-linecap:round;stroke-linejoin:round;stroke-miterlimit:4;stroke-opacity:1;stroke-dasharray:4, 4;stroke-dashoffset:0" />
    <path
       style="fill:none;stroke:#000000;stroke-width:1;stroke-linecap:round;stroke-linejoin:round;stroke-miterlimit:4;stroke-opacity:1;stroke-dasharray:4, 4;stroke-dashoffset:0"
       d="m 262.44557,659.28471 -95.58406,0"
       id="path15722-9-2"
       inkscape:connector-curvature="0" />
    <path
       inkscape:connector-curvature="0"
       id="path15984"
       d="m 461.78572,537.42343 0.65985,87.69808"
       style="fill:none;stroke:#000000;stroke-width:1;stroke-linecap:round;stroke-linejoin:round;stroke-miterlimit:4;stroke-opacity:1;stroke-dasharray:4, 4;stroke-dashoffset:0" />
    <path
       inkscape:connector-curvature="0"
       id="path15986"
       d="m 261.78572,571.58663 0.65985,87.69808"
       style="fill:none;stroke:#000000;stroke-width:1;stroke-linecap:round;stroke-linejoin:round;stroke-miterlimit:4;stroke-opacity:1;stroke-dasharray:4, 4;stroke-dashoffset:0" />
    <path
       inkscape:connector-curvature="0"
       id="path15988"
       d="m 311.7567,537.42343 0.65985,87.69808"
       style="fill:none;stroke:#000000;stroke-width:1;stroke-linecap:round;stroke-linejoin:round;stroke-miterlimit:4;stroke-opacity:1;stroke-dasharray:4, 4;stroke-dashoffset:0" />
    <path
       style="fill:none;stroke:#000000;stroke-width:1;stroke-linecap:round;stroke-linejoin:round;stroke-miterlimit:4;stroke-opacity:1;stroke-dasharray:4, 4;stroke-dashoffset:0"
       d="m 411.78572,571.58663 0.65985,87.69808"
       id="path15982"
       inkscape:connector-curvature="0" />
    <text
       xml:space="preserve"
       style="font-size:20px;font-style:normal;font-weight:normal;line-height:125%;letter-spacing:0px;word-spacing:0px;fill:#000000;fill-opacity:1;stroke:none;font-family:Sans"
       x="348.75516"
       y="592.9953"
       id="text16062"
       sodipodi:linespacing="125%"><tspan
         sodipodi:role="line"
         id="tspan16064"
         x="348.75516"
         y="592.9953" /></text>
    <text
       xml:space="preserve"
       style="font-size:20px;font-style:normal;font-weight:normal;line-height:125%;letter-spacing:0px;word-spacing:0px;fill:#000000;fill-opacity:1;stroke:none;font-family:Sans"
       x="349.51276"
       y="596.53088"
       id="text16066"
       sodipodi:linespacing="125%"><tspan
         sodipodi:role="line"
         id="tspan16068"
         x="349.51276"
         y="596.53088">a</tspan></text>
    <text
       xml:space="preserve"
       style="font-size:20px;font-style:normal;font-weight:normal;line-height:125%;letter-spacing:0px;word-spacing:0px;fill:#000000;fill-opacity:1;stroke:none;font-family:Sans"
       x="493.207"
       y="595.52069"
       id="text16070"
       sodipodi:linespacing="125%"><tspan
         sodipodi:role="line"
         id="tspan16072"
         x="493.207"
         y="595.52069">b</tspan></text>
    <text
       xml:space="preserve"
       style="font-size:20px;font-style:normal;font-weight:normal;line-height:125%;letter-spacing:0px;word-spacing:0px;fill:#000000;fill-opacity:1;stroke:none;font-family:Sans"
       x="204.05083"
       y="624.31006"
       id="text16074"
       sodipodi:linespacing="125%"><tspan
         sodipodi:role="line"
         id="tspan16076"
         x="204.05083"
         y="624.31006">c</tspan></text>
    <text
       xml:space="preserve"
       style="font-size:20px;font-style:normal;font-weight:normal;line-height:125%;letter-spacing:0px;word-spacing:0px;fill:#000000;fill-opacity:1;stroke:none;font-family:Sans"
       x="154.55334"
       y="656.12982"
       id="text16078"
       sodipodi:linespacing="125%"><tspan
         sodipodi:role="line"
         id="tspan16080"
         x="154.55334"
         y="656.12982">d</tspan></text>
    <text
       xml:space="preserve"
       style="font-size:20px;font-style:normal;font-weight:normal;line-height:125%;letter-spacing:0px;word-spacing:0px;fill:#000000;fill-opacity:1;stroke:none;font-family:Sans"
       x="238.90109"
       y="511.93057"
       id="text16082"
       sodipodi:linespacing="125%"><tspan
         sodipodi:role="line"
         id="tspan16084"
         x="238.90109"
         y="511.93057">e</tspan></text>
    <text
       xml:space="preserve"
       style="font-size:20px;font-style:normal;font-weight:normal;line-height:125%;letter-spacing:0px;word-spacing:0px;fill:#000000;fill-opacity:1;stroke:none;font-family:Sans"
       x="239.91122"
       y="379.09552"
       id="text16086"
       sodipodi:linespacing="125%"><tspan
         sodipodi:role="line"
         id="tspan16088"
         x="239.91122"
         y="379.09552">f</tspan></text>
  </g>
</svg>
