<?xml version="1.0" encoding="UTF-8" standalone="no"?>
<!-- Created with Inkscape (http://www.inkscape.org/) -->

<svg
   xmlns:dc="http://purl.org/dc/elements/1.1/"
   xmlns:cc="http://creativecommons.org/ns#"
   xmlns:rdf="http://www.w3.org/1999/02/22-rdf-syntax-ns#"
   xmlns:svg="http://www.w3.org/2000/svg"
   xmlns="http://www.w3.org/2000/svg"
   xmlns:sodipodi="http://sodipodi.sourceforge.net/DTD/sodipodi-0.dtd"
   xmlns:inkscape="http://www.inkscape.org/namespaces/inkscape"
   width="372.97601"
   height="351.77658"
   id="svg19668"
   version="1.1"
   inkscape:version="0.48.4 r9939"
   sodipodi:docname="рисунок.svg">
  <defs
     id="defs19670">
    <marker
       inkscape:stockid="DotM"
       orient="auto"
       refY="0"
       refX="0"
       id="DotM"
       style="overflow:visible">
      <path
         id="path6620"
         d="m -2.5,-1 c 0,2.76 -2.24,5 -5,5 -2.76,0 -5,-2.24 -5,-5 0,-2.76 2.24,-5 5,-5 2.76,0 5,2.24 5,5 z"
         style="fill-rule:evenodd;stroke:#000000;stroke-width:1pt"
         transform="matrix(0.4,0,0,0.4,2.96,0.4)"
         inkscape:connector-curvature="0" />
    </marker>
    <marker
       inkscape:stockid="Arrow1Mstart"
       orient="auto"
       refY="0"
       refX="0"
       id="Arrow1Mstart-2"
       style="overflow:visible">
      <path
         id="path6562-2"
         d="M 0,0 5,-5 -12.5,0 5,5 0,0 z"
         style="fill-rule:evenodd;stroke:#000000;stroke-width:1pt"
         transform="matrix(0.4,0,0,0.4,4,0)"
         inkscape:connector-curvature="0" />
    </marker>
    <marker
       inkscape:stockid="Arrow1Mend"
       orient="auto"
       refY="0"
       refX="0"
       id="Arrow1Mend"
       style="overflow:visible">
      <path
         id="path6565"
         d="M 0,0 5,-5 -12.5,0 5,5 0,0 z"
         style="fill-rule:evenodd;stroke:#000000;stroke-width:1pt"
         transform="matrix(-0.4,0,0,-0.4,-4,0)"
         inkscape:connector-curvature="0" />
    </marker>
    <marker
       inkscape:stockid="Arrow1Mstart"
       orient="auto"
       refY="0"
       refX="0"
       id="Arrow1Mstart"
       style="overflow:visible">
      <path
         id="path6562"
         d="M 0,0 5,-5 -12.5,0 5,5 0,0 z"
         style="fill-rule:evenodd;stroke:#000000;stroke-width:1pt"
         transform="matrix(0.4,0,0,0.4,4,0)"
         inkscape:connector-curvature="0" />
    </marker>
    <marker
       inkscape:stockid="Arrow1Lstart"
       orient="auto"
       refY="0"
       refX="0"
       id="Arrow1Lstart"
       style="overflow:visible">
      <path
         id="path6556"
         d="M 0,0 5,-5 -12.5,0 5,5 0,0 z"
         style="fill-rule:evenodd;stroke:#000000;stroke-width:1pt"
         transform="matrix(0.8,0,0,0.8,10,0)"
         inkscape:connector-curvature="0" />
    </marker>
    <inkscape:path-effect
       is_visible="true"
       id="path-effect2989-3"
       effect="spiro" />
    <inkscape:path-effect
       is_visible="true"
       id="path-effect2989"
       effect="spiro" />
  </defs>
  <sodipodi:namedview
     id="base"
     pagecolor="#ffffff"
     bordercolor="#666666"
     borderopacity="1.0"
     inkscape:pageopacity="0.0"
     inkscape:pageshadow="2"
     inkscape:zoom="1.3664239"
     inkscape:cx="188.99474"
     inkscape:cy="230.44429"
     inkscape:document-units="px"
     inkscape:current-layer="layer1"
     showgrid="false"
     inkscape:object-paths="true"
     fit-margin-top="0"
     fit-margin-left="0"
     fit-margin-right="0"
     fit-margin-bottom="0"
     inkscape:window-width="1855"
     inkscape:window-height="1056"
     inkscape:window-x="65"
     inkscape:window-y="24"
     inkscape:window-maximized="1" />
  <metadata
     id="metadata19673">
    <rdf:RDF>
      <cc:Work
         rdf:about="">
        <dc:format>image/svg+xml</dc:format>
        <dc:type
           rdf:resource="http://purl.org/dc/dcmitype/StillImage" />
        <dc:title></dc:title>
      </cc:Work>
    </rdf:RDF>
  </metadata>
  <g
     inkscape:label="Layer 1"
     inkscape:groupmode="layer"
     id="layer1"
     transform="translate(-195.87825,-348.00035)">
    <path
       style="fill:none;stroke:#000000;stroke-width:2;stroke-linecap:butt;stroke-linejoin:miter;stroke-miterlimit:4;stroke-opacity:1;stroke-dasharray:none;marker-start:url(#Arrow1Mstart)"
       d="m 291.40081,350.50035 0,267.18546"
       id="path2997"
       inkscape:connector-curvature="0"
       sodipodi:nodetypes="cc" />
    <path
       sodipodi:nodetypes="cc"
       inkscape:connector-curvature="0"
       id="path3800"
       d="m 566.35426,617.68581 -274.95345,0"
       style="fill:none;stroke:#000000;stroke-width:2;stroke-linecap:butt;stroke-linejoin:miter;stroke-miterlimit:4;stroke-opacity:1;stroke-dasharray:none;marker-start:url(#Arrow1Mstart)" />
    <text
       xml:space="preserve"
       style="font-size:20px;font-style:normal;font-weight:normal;line-height:125%;letter-spacing:0px;word-spacing:0px;fill:#000000;fill-opacity:1;stroke:none;font-family:Sans"
       x="556.04102"
       y="634.88232"
       id="text3046"
       sodipodi:linespacing="125%"><tspan
         sodipodi:role="line"
         id="tspan3048"
         x="556.04102"
         y="634.88232">x</tspan></text>
    <text
       xml:space="preserve"
       style="font-size:20px;font-style:normal;font-weight:normal;line-height:125%;letter-spacing:0px;word-spacing:0px;fill:#000000;fill-opacity:1;stroke:none;font-family:Sans"
       x="201.86234"
       y="695.61676"
       id="text3050"
       sodipodi:linespacing="125%"><tspan
         sodipodi:role="line"
         id="tspan3052"
         x="201.86234"
         y="695.61676">y</tspan></text>
    <path
       style="fill:none;stroke:#000000;stroke-width:2;stroke-linecap:butt;stroke-linejoin:miter;stroke-miterlimit:4;stroke-opacity:1;stroke-dasharray:none;marker-start:url(#Arrow1Mstart)"
       d="m 198.02957,681.48628 93.37124,-63.80047"
       id="path2997-8"
       inkscape:connector-curvature="0"
       sodipodi:nodetypes="cc"
       inkscape:transform-center-y="-25.662863"
       inkscape:transform-center-x="-42.39243" />
    <text
       xml:space="preserve"
       style="font-size:20px;font-style:normal;font-weight:normal;line-height:125%;letter-spacing:0px;word-spacing:0px;fill:#000000;fill-opacity:1;stroke:none;font-family:Sans"
       x="272.42422"
       y="360.52151"
       id="text13537"
       sodipodi:linespacing="125%"><tspan
         sodipodi:role="line"
         id="tspan13539"
         x="272.42422"
         y="360.52151">z</tspan></text>
    <path
       style="fill:none;stroke:#000000;stroke-width:1px;stroke-linecap:butt;stroke-linejoin:miter;stroke-opacity:1"
       d="m 312.64221,438.69451 c 32.98899,-45.12225 116.09593,-40.20122 162.63456,-28.78935 26.26941,6.4416 39.73842,27.10116 28.78935,44.95179 -19.20706,31.3139 -161.67374,32.10036 -189.65614,17.42513 -9.44336,-4.95252 -9.08318,-23.58157 -1.76777,-33.58757 z"
       id="path19763"
       inkscape:connector-curvature="0"
       sodipodi:nodetypes="sssss" />
    <path
       id="path20303"
       d="m 307.14179,669.19815 c 2.32379,-12.05583 58.05194,-17.28572 91.78678,-18.7727 33.54002,-1.47838 113.9074,-5.42744 108.79595,6.92668"
       style="fill:none;stroke:#000000;stroke-width:1;stroke-linecap:round;stroke-linejoin:miter;stroke-miterlimit:4;stroke-opacity:1;stroke-dasharray:none;stroke-dashoffset:0"
       inkscape:connector-curvature="0"
       sodipodi:nodetypes="csc" />
    <path
       style="fill:none;stroke:#000000;stroke-width:1;stroke-linecap:round;stroke-linejoin:miter;stroke-miterlimit:4;stroke-opacity:1;stroke-dasharray:2, 2;stroke-dashoffset:0"
       d="m 366.63886,617.68581 -59.18231,50.52542 -0.31476,-211.71921 c 2.32379,-12.05583 58.05194,-17.28572 91.78678,-18.7727 33.54002,-1.47838 113.9074,-5.42744 108.79595,6.92668 l 0,212.24146 30.18171,-39.20165"
       id="path19769"
       inkscape:connector-curvature="0"
       sodipodi:nodetypes="cccsccc" />
    <path
       id="path20305"
       d="m 307.14179,669.19815 c -3.96474,20.56915 192.06003,8.75292 200.58273,-11.84602"
       style="fill:none;stroke:#000000;stroke-width:1px;stroke-linecap:butt;stroke-linejoin:miter;stroke-opacity:1"
       inkscape:connector-curvature="0" />
    <path
       style="fill:none;stroke:#000000;stroke-width:1px;stroke-linecap:butt;stroke-linejoin:miter;stroke-opacity:1"
       d="m 307.14179,456.49202 c -3.96474,20.56915 192.06003,8.75292 200.58273,-11.84602"
       id="path19765"
       inkscape:connector-curvature="0" />
    <path
       style="fill:#000000;fill-opacity:0.1372549;fill-rule:nonzero;stroke:none"
       d="m 354.59161,679.10099 c -12.8583,-0.31684 -25.78325,-1.33628 -32.56676,-2.56867 -8.60832,-1.5639 -14.27083,-4.22733 -14.27083,-6.71245 0,-0.76389 1.85306,-3.27109 2.43126,-3.28951 0.23028,-0.007 0.96057,-0.51952 1.62287,-1.1382 1.51266,-1.41304 2.96835,-2.15452 7.06354,-3.59792 13.03943,-4.59593 40.2728,-8.46505 72.31178,-10.27353 15.30318,-0.86381 43.66119,-1.85262 59.27883,-2.06698 36.93143,-0.5069 56.71739,1.92929 56.71739,6.98347 0,2.08075 -4.46794,5.08488 -11.34348,7.62707 -17.80946,6.58495 -61.49266,12.65056 -104.46978,14.50609 -9.45013,0.40801 -29.822,0.70196 -36.77482,0.53063 z"
       id="path20316"
       inkscape:connector-curvature="0" />
    <text
       xml:space="preserve"
       style="font-size:20px;font-style:normal;font-weight:normal;line-height:125%;letter-spacing:0px;word-spacing:0px;fill:#000000;fill-opacity:1;stroke:none;font-family:Sans"
       x="385.67825"
       y="670.70898"
       id="text20318"
       sodipodi:linespacing="125%"><tspan
         sodipodi:role="line"
         id="tspan20320"
         x="385.67825"
         y="670.70898">D</tspan></text>
    <text
       xml:space="preserve"
       style="font-size:20px;font-style:normal;font-weight:normal;line-height:125%;letter-spacing:0px;word-spacing:0px;fill:#000000;fill-opacity:1;stroke:none;font-family:Sans"
       x="363.35721"
       y="614.72345"
       id="text20322"
       sodipodi:linespacing="125%"><tspan
         sodipodi:role="line"
         id="tspan20324"
         x="363.35721"
         y="614.72345">a</tspan></text>
    <text
       xml:space="preserve"
       style="font-size:20px;font-style:normal;font-weight:normal;line-height:125%;letter-spacing:0px;word-spacing:0px;fill:#000000;fill-opacity:1;stroke:none;font-family:Sans"
       x="535.33899"
       y="614.35754"
       id="text20326"
       sodipodi:linespacing="125%"><tspan
         sodipodi:role="line"
         id="tspan20328"
         x="535.33899"
         y="614.35754">b</tspan></text>
    <text
       xml:space="preserve"
       style="font-size:20px;font-style:normal;font-weight:normal;line-height:125%;letter-spacing:0px;word-spacing:0px;fill:#000000;fill-opacity:1;stroke:none;font-family:Sans"
       x="392.2648"
       y="427.37314"
       id="text20330"
       sodipodi:linespacing="125%"><tspan
         sodipodi:role="line"
         id="tspan20332"
         x="392.2648"
         y="427.37314">V</tspan></text>
    <path
       style="fill:none;stroke:#000000;stroke-width:1px;stroke-linecap:butt;stroke-linejoin:miter;stroke-opacity:1;marker-mid:url(#Arrow1Mend)"
       d="m 465.44852,617.68581 -25.37224,31.20222 -23.39572,28.86114 -13.08627,16.4904"
       id="path20334"
       inkscape:connector-curvature="0"
       sodipodi:nodetypes="cccc" />
    <path
       style="fill:none;stroke:#000000;stroke-width:1px;stroke-linecap:butt;stroke-linejoin:miter;stroke-opacity:1;marker-start:url(#DotM);marker-mid:url(#Arrow1Mend)"
       d="m 456.16489,661.40067 0,-185.47814 0,-69.92677 0,-31.80045"
       id="path20712"
       inkscape:connector-curvature="0" />
  </g>
</svg>
