<?xml version="1.0" encoding="UTF-8" standalone="no"?>
<!-- Created with Inkscape (http://www.inkscape.org/) -->

<svg
   xmlns:dc="http://purl.org/dc/elements/1.1/"
   xmlns:cc="http://creativecommons.org/ns#"
   xmlns:rdf="http://www.w3.org/1999/02/22-rdf-syntax-ns#"
   xmlns:svg="http://www.w3.org/2000/svg"
   xmlns="http://www.w3.org/2000/svg"
   xmlns:sodipodi="http://sodipodi.sourceforge.net/DTD/sodipodi-0.dtd"
   xmlns:inkscape="http://www.inkscape.org/namespaces/inkscape"
   width="327.17136"
   height="327.17136"
   id="svg10782"
   version="1.1"
   inkscape:version="0.48.4 r9939"
   sodipodi:docname="img44.svg">
  <defs
     id="defs10784">
    <marker
       inkscape:stockid="DotM"
       orient="auto"
       refY="0"
       refX="0"
       id="DotM"
       style="overflow:visible">
      <path
         id="path6620"
         d="m -2.5,-1 c 0,2.76 -2.24,5 -5,5 -2.76,0 -5,-2.24 -5,-5 0,-2.76 2.24,-5 5,-5 2.76,0 5,2.24 5,5 z"
         style="fill-rule:evenodd;stroke:#000000;stroke-width:1pt"
         transform="matrix(0.4,0,0,0.4,2.96,0.4)"
         inkscape:connector-curvature="0" />
    </marker>
    <inkscape:perspective
       sodipodi:type="inkscape:persp3d"
       inkscape:vp_x="-23.233509 : 521.13033 : 1"
       inkscape:vp_y="0 : 1000 : 0"
       inkscape:vp_z="744.09448 : 526.18109 : 1"
       inkscape:persp3d-origin="372.04724 : 350.78739 : 1"
       id="perspective11774" />
    <marker
       inkscape:stockid="Arrow1Lstart"
       orient="auto"
       refY="0"
       refX="0"
       id="Arrow1Lstart"
       style="overflow:visible">
      <path
         id="path6556"
         d="M 0,0 5,-5 -12.5,0 5,5 0,0 z"
         style="fill-rule:evenodd;stroke:#000000;stroke-width:1pt"
         transform="matrix(0.8,0,0,0.8,10,0)"
         inkscape:connector-curvature="0" />
    </marker>
  </defs>
  <sodipodi:namedview
     id="base"
     pagecolor="#ffffff"
     bordercolor="#666666"
     borderopacity="1.0"
     inkscape:pageopacity="0.0"
     inkscape:pageshadow="2"
     inkscape:zoom="0.98994949"
     inkscape:cx="104.145"
     inkscape:cy="147.04508"
     inkscape:document-units="px"
     inkscape:current-layer="layer1"
     showgrid="false"
     inkscape:window-width="1855"
     inkscape:window-height="1056"
     inkscape:window-x="65"
     inkscape:window-y="24"
     inkscape:window-maximized="1"
     inkscape:object-paths="true"
     inkscape:snap-intersection-paths="true"
     inkscape:object-nodes="true"
     showguides="true"
     inkscape:guide-bbox="true"
     fit-margin-top="0"
     fit-margin-left="0"
     fit-margin-right="0"
     fit-margin-bottom="0">
    <sodipodi:guide
       orientation="1,0"
       position="172.82619,244.26942"
       id="guide11808" />
    <sodipodi:guide
       orientation="1,0"
       position="195.05833,235.25157"
       id="guide11810" />
    <sodipodi:guide
       orientation="1,0"
       position="220.8619,231.68014"
       id="guide11812" />
    <sodipodi:guide
       orientation="1,0"
       position="242.7369,237.48371"
       id="guide11814" />
  </sodipodi:namedview>
  <metadata
     id="metadata10787">
    <rdf:RDF>
      <cc:Work
         rdf:about="">
        <dc:format>image/svg+xml</dc:format>
        <dc:type
           rdf:resource="http://purl.org/dc/dcmitype/StillImage" />
        <dc:title></dc:title>
      </cc:Work>
    </rdf:RDF>
  </metadata>
  <g
     inkscape:label="Layer 1"
     inkscape:groupmode="layer"
     id="layer1"
     transform="translate(-50.566666,-237.2281)">
    <path
       sodipodi:type="spiral"
       style="fill:none;stroke:#000000;stroke-width:1px;stroke-linecap:butt;stroke-linejoin:miter;stroke-opacity:1;marker-start:none"
       id="path10792"
       sodipodi:cx="214.15234"
       sodipodi:cy="400.81378"
       sodipodi:expansion="0"
       sodipodi:revolution="1"
       sodipodi:radius="163.08568"
       sodipodi:argument="-6.2831855"
       sodipodi:t0="0"
       d="m 377.23802,400.81375 c 2e-5,88.83807 -74.24758,163.08569 -163.08565,163.08571 -88.83806,2e-5 -163.085689,-74.24759 -163.085704,-163.08565 -1.6e-5,-88.83806 74.247584,-163.08569 163.085654,-163.08571 88.83806,-1e-5 163.08569,74.24759 163.0857,163.08565" />
    <path
       transform="matrix(0.99904854,0,0,0.30692492,0.26688182,270.21791)"
       sodipodi:type="spiral"
       style="fill:none;stroke:#000000;stroke-width:1.80588722;stroke-linecap:butt;stroke-linejoin:miter;stroke-miterlimit:4;stroke-opacity:1;stroke-dasharray:none;marker-start:none"
       id="path10792-4"
       sodipodi:cx="214.15234"
       sodipodi:cy="400.81378"
       sodipodi:expansion="0"
       sodipodi:revolution="1"
       sodipodi:radius="163.08568"
       sodipodi:argument="-6.2831855"
       sodipodi:t0="0"
       d="m 377.23802,400.81375 c 2e-5,88.83807 -74.24758,163.08569 -163.08565,163.08571 -88.83806,2e-5 -163.085689,-74.24759 -163.085704,-163.08565 -1.6e-5,-88.83806 74.247584,-163.08569 163.085654,-163.08571 88.83806,-1e-5 163.08569,74.24759 163.0857,163.08565" />
    <path
       style="fill:none;stroke:#000000;stroke-width:1px;stroke-linecap:round;stroke-linejoin:round;stroke-opacity:1"
       d="m 223.39286,320.13004 48.03571,-2e-5 0,43.12502 -48.03571,0 z"
       id="path11790"
       inkscape:connector-curvature="0"
       sodipodi:nodetypes="ccccc" />
    <path
       style="fill:none;stroke:#000000;stroke-width:1px;stroke-linecap:round;stroke-linejoin:round;stroke-opacity:1"
       d="m 271.42857,320.13004 21.875,-15.08929 0,41.42857 -21.875,16.78572"
       id="path11792"
       inkscape:connector-curvature="0"
       sodipodi:nodetypes="cccc" />
    <path
       style="fill:none;stroke:#000000;stroke-width:1px;stroke-linecap:round;stroke-linejoin:round;stroke-opacity:1"
       d="m 223.39286,320.13004 22.23214,-15.08929 47.67857,0"
       id="path11794"
       inkscape:connector-curvature="0"
       sodipodi:nodetypes="ccc" />
    <path
       style="fill:none;stroke:#000000;stroke-width:1;stroke-linecap:round;stroke-linejoin:round;stroke-miterlimit:4;stroke-opacity:1;stroke-dasharray:2, 2;stroke-dashoffset:0"
       d="m 223.39286,363.25504 22.23214,-16.96429 0,-41.25"
       id="path11796"
       inkscape:connector-curvature="0"
       sodipodi:nodetypes="ccc" />
    <path
       style="fill:none;stroke:#000000;stroke-width:1;stroke-linecap:round;stroke-linejoin:round;stroke-miterlimit:4;stroke-opacity:1;stroke-dasharray:2, 2;stroke-dashoffset:0"
       d="m 245.625,346.29075 47.67857,0"
       id="path11798"
       inkscape:connector-curvature="0"
       sodipodi:nodetypes="cc" />
    <path
       style="fill:#000000;fill-opacity:0.1372549;stroke:none"
       d="m 232.03064,314.99929 c 3.72439,-2.52497 8.13768,-5.52622 9.80733,-6.66943 2.94632,-2.01736 3.04517,-2.06879 3.35676,-1.74671 0.42013,0.43427 1.01824,0.15149 1.01824,-0.48142 l 0,-0.44015 22.52976,0 c 12.39137,0 22.49103,0.0387 22.44369,0.0861 -0.0473,0.0473 -4.57504,3.18127 -10.06155,6.96429 l -9.97548,6.87821 -22.94518,0 -22.94518,0 6.77161,-4.59086 z m 13.99042,3.62479 c 0.12728,-0.15337 0.18818,-0.7219 0.15579,-1.45457 -0.0411,-0.93085 -0.12619,-1.24738 -0.37613,-1.4 -0.5034,-0.3074 -0.83775,0.29947 -0.83775,1.52059 0,1.30542 0.52865,1.97192 1.05809,1.33398 z m 0.15729,-5.00863 c 0.0752,-1.46393 -0.0525,-1.88244 -0.57468,-1.88244 -0.51907,0 -0.6407,0.28815 -0.6407,1.51786 0,1.28892 0.12149,1.54908 0.69245,1.48287 0.43962,-0.051 0.47161,-0.11939 0.52293,-1.11829 l 0,0 z m -0.17967,-2.98958 c 0.48586,-0.48586 0.19724,-3 -0.34439,-3 -0.40801,0 -0.69132,0.63206 -0.69132,1.54235 0,1.42688 0.443,2.05036 1.03571,1.45765 z"
       id="path11816"
       inkscape:connector-curvature="0" />
    <path
       style="fill:#000000;fill-opacity:0.1372549;fill-rule:nonzero;stroke:none"
       d="m 266.83797,345.38072 c -9.4888,-1.14773 -31.02813,-2.56353 -39.19643,-2.57641 -1.32589,-0.002 -2.71205,-0.0536 -3.08036,-0.11449 l -0.66964,-0.11068 0,-10.95878 0,-10.95878 10.53571,0 10.53572,0 0,0.72603 c 0,0.88961 0.26102,1.41683 0.70146,1.41683 0.41133,0 0.54854,-0.33866 0.54854,-1.35389 l 0,-0.78897 12.32143,0 12.32142,0 0,12.5 0,12.5 -1.02678,-0.0216 c -0.56473,-0.0119 -1.91072,-0.12856 -2.99107,-0.25923 z m -20.70767,-2.98551 c 0.0565,-0.22507 0.0781,-0.88802 0.048,-1.47321 -0.0497,-0.96705 -0.0935,-1.06948 -0.4809,-1.12426 -0.23443,-0.0331 -0.49436,0.0472 -0.57763,0.17857 -0.21325,0.33645 -0.19372,2.06843 0.028,2.48272 0.25792,0.48192 0.85525,0.44312 0.98248,-0.0638 z m -0.10924,-3.77113 c 0.12728,-0.15337 0.18818,-0.7219 0.15579,-1.45457 -0.0411,-0.93085 -0.12619,-1.24738 -0.37613,-1.4 -0.5034,-0.3074 -0.83775,0.29947 -0.83775,1.52059 0,1.30542 0.52865,1.97192 1.05809,1.33398 z m 0.15729,-5.00863 c 0.0752,-1.46393 -0.0525,-1.88244 -0.57468,-1.88244 -0.51907,0 -0.6407,0.28815 -0.6407,1.51786 0,1.28892 0.12149,1.54908 0.69245,1.48287 0.43962,-0.051 0.47161,-0.11939 0.52293,-1.11829 l 0,0 z m -0.17967,-2.98958 c 0.48586,-0.48586 0.19724,-3 -0.34439,-3 -0.40801,0 -0.69132,0.63206 -0.69132,1.54235 0,1.42688 0.443,2.05036 1.03571,1.45765 z m 0.21429,-5.22383 c 0,-1.36607 -0.10898,-1.70475 -0.54854,-1.70475 -0.47368,0 -0.70146,0.54292 -0.70146,1.67194 0,1.14924 0.34034,1.65948 0.90526,1.35714 0.28533,-0.1527 0.34474,-0.38093 0.34474,-1.32433 z"
       id="path11818"
       inkscape:connector-curvature="0" />
    <path
       style="fill:#000000;fill-opacity:0.1372549;fill-rule:nonzero;stroke:none"
       d="m 225.46059,362.09015 c 0.0713,-0.48581 0.0323,-0.53571 -0.41865,-0.53571 -0.2735,0 -0.64423,0.13299 -0.82384,0.29553 -0.31596,0.28594 -0.32656,-9.3e-4 -0.32656,-8.83928 l 0,-9.13482 1.11607,0.002 c 2.96676,0.004 18.82659,0.6658 19.55357,0.81533 0.34343,0.0706 0.40179,0.19701 0.40179,0.87005 0,1.10454 0.3054,1.34864 1.68732,1.34864 0.80961,0 1.19206,-0.0795 1.36082,-0.28283 0.39306,-0.47361 -0.0186,-0.87004 -0.96822,-0.93231 -0.7464,-0.0489 -0.82992,-0.0984 -0.82992,-0.49107 0,-0.24016 0.0603,-0.43603 0.13393,-0.43529 0.0737,7.5e-4 2.26339,0.15935 4.86607,0.35243 4.98034,0.36949 6.48451,0.53345 6.11607,0.66668 -0.32055,0.11592 -0.27558,0.88551 0.0592,1.014 0.36582,0.14038 2.10496,0.14038 2.47079,0 0.15535,-0.0596 0.28246,-0.30069 0.28246,-0.53572 0,-0.61058 0.6278,-0.56752 0.92945,0.0637 0.21703,0.45419 0.32469,0.49503 1.43318,0.54376 1.00185,0.044 1.24672,-0.004 1.49225,-0.29036 0.32137,-0.37534 0.87295,-0.32678 1.31629,0.11588 0.20664,0.20632 0.59404,0.2382 1.875,0.15429 0.888,-0.0582 2.0766,-0.058 2.64133,5e-4 l 1.02678,0.10626 0,7.83216 0,7.83216 -22.73693,0 -22.73692,0 0.0786,-0.53571 0,-10e-6 z m 2.34564,-1.45128 c 0.98937,-0.78775 1.17959,-1.44335 0.44909,-1.54783 -0.46485,-0.0665 -2.22092,1.30501 -2.22092,1.73454 0,0.79359 0.62308,0.72794 1.77183,-0.18671 l 0,0 z m 3.33921,-2.56618 c 0.7287,-0.64705 0.83982,-0.82533 0.67977,-1.0906 -0.30729,-0.50931 -0.48725,-0.47552 -1.56037,0.29292 -0.74357,0.53246 -1.01616,0.84078 -1.01616,1.14937 0,0.84723 0.69079,0.71915 1.89676,-0.35169 z m 2.93145,-2.1879 c 0.93949,-0.72599 1.10864,-0.97223 0.95065,-1.38392 -0.16384,-0.42696 -0.75789,-0.31294 -1.55673,0.29881 -1.05366,0.80688 -1.2068,1.02586 -0.99464,1.42228 0.26177,0.48912 0.63251,0.41103 1.60072,-0.33717 z m 3.20556,-2.47098 c 0.98677,-0.78434 1.09424,-0.95101 0.87606,-1.35868 -0.24822,-0.4638 -0.509,-0.40515 -1.54505,0.34752 -0.98602,0.71632 -1.16304,0.96111 -1.00078,1.38393 0.17101,0.44566 0.82329,0.30005 1.66977,-0.37277 l 0,0 z m 2.37976,-1.88521 c 0.93393,-0.48944 1.72933,-1.26473 1.72933,-1.6856 0,-0.66634 -0.70908,-0.55134 -1.76968,0.28702 -0.93123,0.7361 -1.06993,1.01338 -0.69461,1.3887 0.26186,0.26186 0.25434,0.26176 0.73496,0.01 l 0,0 z m 4.04548,-3.02254 c 0.67985,-0.53738 0.90521,-0.82793 0.86425,-1.11424 -0.0305,-0.21302 -0.2,-0.41487 -0.37672,-0.44857 -0.42949,-0.0819 -2.26797,1.32056 -2.26797,1.73007 0,0.80141 0.62985,0.74224 1.78044,-0.16726 z m 8.28851,-1.8675 c 0.63378,-0.63378 -0.0756,-1.03495 -1.66724,-0.94289 -1.0742,0.0621 -1.50805,0.43261 -1.0927,0.93308 0.32292,0.3891 2.37336,0.39638 2.75994,0.01 l 0,10e-6 z m 4.05062,-0.01 c 0.44891,-0.54091 -0.0162,-0.87238 -1.30526,-0.93023 -1.34337,-0.0603 -1.8912,0.2451 -1.55767,0.86831 0.15469,0.28904 0.38191,0.34474 1.40635,0.34474 0.89698,0 1.28426,-0.0752 1.45658,-0.28282 z"
       id="path11820"
       inkscape:connector-curvature="0" />
    <path
       style="fill:#000000;fill-opacity:0.1372549;fill-rule:nonzero;stroke:none"
       d="m 288.26654,348.21559 c -0.78572,-0.12527 -2.83482,-0.43241 -4.55357,-0.68253 -3.51464,-0.51146 -4.11502,-0.62976 -3.79465,-0.74766 0.32048,-0.11795 0.27561,-0.88693 -0.0592,-1.01543 -0.15536,-0.0596 -0.71128,-0.10839 -1.2354,-0.10839 -1.18274,0 -1.51786,0.12249 -1.51786,0.55482 0,0.49628 -0.76034,0.44704 -0.98444,-0.0638 -0.16104,-0.36706 -0.28429,-0.39873 -1.42627,-0.36649 -0.6875,0.0194 -1.57143,0.0596 -1.96429,0.0893 l -0.71428,0.054 -0.0458,-12.70542 -0.0458,-12.70542 10.25676,-7.07137 c 5.64122,-3.88925 10.30247,-7.07136 10.35833,-7.07136 0.0559,0 0.10157,9 0.10157,20 0,11 -0.0625,20 -0.13889,20 -0.0764,0 -0.27649,-0.16072 -0.44468,-0.35715 -0.40098,-0.46831 -2.44994,-0.52227 -2.82171,-0.0743 -0.43423,0.52321 0.0188,0.86845 1.26907,0.96717 l 1.13081,0.0893 -0.97052,0.72124 -0.97051,0.72125 -1.42857,-0.22777 0,0 z m -4.30606,-1.57703 c 0.63378,-0.63378 -0.0756,-1.03495 -1.66724,-0.94289 -1.07419,0.0621 -1.50805,0.43261 -1.0927,0.93309 0.32293,0.38909 2.37336,0.39637 2.75994,0.01 l 0,0 z m 4.05062,-0.01 c 0.41536,-0.50047 -0.0185,-0.87095 -1.09269,-0.93308 -1.59167,-0.0921 -2.30102,0.3091 -1.66724,0.94288 0.38657,0.38658 2.43701,0.3793 2.75993,-0.01 l 0,0 z"
       id="path11822"
       inkscape:connector-curvature="0" />
    <path
       style="fill:#000000;fill-opacity:0.1372549;fill-rule:nonzero;stroke:none"
       d="m 271.92725,354.60962 0,-7.51054 0.49107,0.08 c 0.27009,0.044 1.21429,0.16527 2.09822,0.26953 2.20701,0.26032 11.3502,1.55498 12.73736,1.80359 0.62161,0.1114 1.06358,0.26446 0.98214,0.34013 -0.0814,0.0757 -3.48289,2.68988 -7.55879,5.80938 -4.07589,3.1195 -7.71205,5.90731 -8.08035,6.19515 l -0.66965,0.52333 0,-7.51054 z"
       id="path11824"
       inkscape:connector-curvature="0" />
    <text
       xml:space="preserve"
       style="font-size:40px;font-style:normal;font-weight:normal;line-height:125%;letter-spacing:0px;word-spacing:0px;fill:#000000;fill-opacity:1;stroke:none;font-family:Sans"
       x="107.14285"
       y="335.93359"
       id="text11826"
       sodipodi:linespacing="125%"><tspan
         sodipodi:role="line"
         id="tspan11828"
         x="107.14285"
         y="335.93359">V</tspan></text>
    <text
       xml:space="preserve"
       style="font-size:40px;font-style:normal;font-weight:normal;line-height:125%;letter-spacing:0px;word-spacing:0px;fill:#000000;fill-opacity:1;stroke:none;font-family:Sans"
       x="197.85715"
       y="426.64789"
       id="text11830"
       sodipodi:linespacing="125%"><tspan
         sodipodi:role="line"
         id="tspan11832"
         x="197.85715"
         y="426.64789">M</tspan></text>
    <text
       xml:space="preserve"
       style="font-size:20px;font-style:normal;font-weight:normal;line-height:125%;letter-spacing:0px;word-spacing:0px;fill:#000000;fill-opacity:1;stroke:none;font-family:Sans"
       x="182.14285"
       y="412.36218"
       id="text11834"
       sodipodi:linespacing="125%"><tspan
         sodipodi:role="line"
         id="tspan11836"
         x="0"
         y="0"><tspan
           style="font-size:65.00091553%;baseline-shift:sub"
           id="tspan11838" /></tspan></text>
    <text
       xml:space="preserve"
       style="font-size:20px;font-style:normal;font-weight:normal;line-height:125%;letter-spacing:0px;word-spacing:0px;fill:#000000;fill-opacity:1;stroke:none;font-family:Sans"
       x="318.01093"
       y="346.29074"
       id="text11840"
       sodipodi:linespacing="125%"><tspan
         sodipodi:role="line"
         id="tspan11842"
         x="318.01093"
         y="346.29074">M<tspan
   style="font-size:65.00091553%;baseline-shift:sub"
   id="tspan11844">i</tspan></tspan></text>
    <text
       xml:space="preserve"
       style="font-size:20px;font-style:normal;font-weight:normal;line-height:125%;letter-spacing:0px;word-spacing:0px;fill:#000000;fill-opacity:1;stroke:none;font-family:Sans"
       x="226.68109"
       y="337.39807"
       id="text11848"
       sodipodi:linespacing="125%"><tspan
         sodipodi:role="line"
         id="tspan11850"
         x="226.68109"
         y="337.39807">V<tspan
   style="font-size:65.00091553%;baseline-shift:sub"
   id="tspan11852">i</tspan></tspan></text>
    <path
       style="fill:none;stroke:#000000;stroke-width:1px;stroke-linecap:butt;stroke-linejoin:miter;stroke-opacity:1;marker-start:url(#DotM)"
       d="m 262.38712,336.16403 c 18.86103,0.35764 37.72207,-2.64816 56.5831,16.38146 l 19.41372,0.0667"
       id="path11854"
       inkscape:connector-curvature="0"
       sodipodi:nodetypes="ccc" />
    <path
       sodipodi:type="arc"
       style="fill:#000000;fill-opacity:1;fill-rule:nonzero;stroke:none"
       id="path12042"
       sodipodi:cx="134.10715"
       sodipodi:cy="186.81421"
       sodipodi:rx="4.6428571"
       sodipodi:ry="4.6428571"
       d="m 138.75,186.81421 a 4.6428571,4.6428571 0 1 1 -9.28571,0 4.6428571,4.6428571 0 1 1 9.28571,0 z"
       transform="translate(58.780952,237.2281)" />
  </g>
</svg>
