<?xml version="1.0" encoding="UTF-8" standalone="no"?>
<!-- Created with Inkscape (http://www.inkscape.org/) -->

<svg
   xmlns:dc="http://purl.org/dc/elements/1.1/"
   xmlns:cc="http://creativecommons.org/ns#"
   xmlns:rdf="http://www.w3.org/1999/02/22-rdf-syntax-ns#"
   xmlns:svg="http://www.w3.org/2000/svg"
   xmlns="http://www.w3.org/2000/svg"
   xmlns:sodipodi="http://sodipodi.sourceforge.net/DTD/sodipodi-0.dtd"
   xmlns:inkscape="http://www.inkscape.org/namespaces/inkscape"
   width="674.89996"
   height="410.10925"
   id="svg2"
   version="1.1"
   inkscape:version="0.48.4 r9939"
   sodipodi:docname="Новый документ 1">
  <defs
     id="defs4" />
  <sodipodi:namedview
     id="base"
     pagecolor="#ffffff"
     bordercolor="#666666"
     borderopacity="1.0"
     inkscape:pageopacity="0.0"
     inkscape:pageshadow="2"
     inkscape:zoom="0.35"
     inkscape:cx="243.88258"
     inkscape:cy="184.21074"
     inkscape:document-units="px"
     inkscape:current-layer="layer1"
     showgrid="false"
     fit-margin-top="0"
     fit-margin-left="0"
     fit-margin-right="0"
     fit-margin-bottom="0"
     inkscape:window-width="517"
     inkscape:window-height="404"
     inkscape:window-x="322"
     inkscape:window-y="91"
     inkscape:window-maximized="0" />
  <metadata
     id="metadata7">
    <rdf:RDF>
      <cc:Work
         rdf:about="">
        <dc:format>image/svg+xml</dc:format>
        <dc:type
           rdf:resource="http://purl.org/dc/dcmitype/StillImage" />
        <dc:title></dc:title>
      </cc:Work>
    </rdf:RDF>
  </metadata>
  <g
     inkscape:label="Layer 1"
     inkscape:groupmode="layer"
     id="layer1"
     transform="translate(-24.942261,-237.14988)">
    <path
       style="fill:#000000"
       d="m 90.189391,646.94415 -1.65288,0.31497 -0.70052,-4.14638 -0.70053,-4.14637 0.69527,-43.81956 0.69528,-43.81957 -30.5429,-0.33868 -30.5429,-0.33868 -1.24897,-1.25 -1.24898,-1.25 1.24844,-1.25 1.24845,-1.25 30.20155,-0.5 30.20156,-0.5 0.63571,-17.5 c 0.34964,-9.625 0.93054,-41.39647 1.29089,-70.60327 l 0.65517,-53.10327 -6.18758,-0.64673 c -3.40316,-0.3557 -7.895,-0.64673 -9.98186,-0.64673 l -3.7943,0 -0.67188,-1.08713 -0.67189,-1.08713 0.86287,-0.85578 0.86287,-0.85578 9.5,-0.31686 9.5,-0.31686 0.62278,-4.49023 c 0.34252,-2.46963 0.50907,-4.62368 0.37011,-4.78679 -0.13897,-0.1631 -2.11267,0.67294 -4.38601,1.85787 l -4.13334,2.15441 -3.73677,-0.44635 -3.73677,-0.44635 -1.81513,1.08849 -1.81513,1.08849 -1.93487,-2.36078 -1.93487,-2.36079 0,-3.0573 c 0,-1.68152 -0.50785,-5.97359 -1.12856,-9.53795 l -1.12855,-6.48064 2.37855,-1.88305 c 1.30821,-1.03568 3.62012,-2.55741 5.13759,-3.38162 l 2.75903,-1.49857 2.07563,1.11084 2.07563,1.11084 1.42876,3.41951 1.42876,3.41951 1.10171,0 c 0.60594,0 2.6249,1.66294 4.48658,3.69542 l 3.38487,3.69541 0,-59.62899 0,-59.629 -2.74145,-0.31642 -2.74145,-0.31642 -0.34565,-1.82155 -0.34566,-1.82155 2.16048,-5.32306 2.16047,-5.32307 2.47157,-2.32192 2.47158,-2.32192 1.51288,0.96653 1.51288,0.96654 2.33118,5.75157 c 1.282149,3.16336 2.627619,7.33173 2.989929,9.26305 l 0.65876,3.51149 -1.61498,0.61973 -1.61498,0.61972 -1.132779,-1.13278 c -0.62303,-0.62303 -1.38028,-1.13228 -1.68278,-1.13168 l -0.55,10e-4 -0.0209,50.81328 -0.0209,50.81328 3.447779,-2.33973 c 1.89627,-1.28685 4.49216,-2.60185 5.76864,-2.92222 l 2.32087,-0.5825 1.50223,0.57646 1.50224,0.57646 0,1.07423 c 0,0.59082 -2.09499,3.31394 -4.65554,6.05137 l -4.65553,4.97714 -2.249979,0.56471 -2.24998,0.56471 -0.58083,2.1653 c -0.31946,1.19092 -0.58698,6.72606 -0.59449,12.3003 l -0.0136,10.13499 2.34502,1.53651 2.345009,1.53652 50.90499,0.29835 50.90498,0.29836 1.25,-0.77888 1.25,-0.77887 0,-2.8302 0,-2.8302 1.88538,-2.32835 1.88539,-2.32835 1.61461,1.34001 1.61462,1.34001 0,3.81854 0,3.81854 0.75,0.46046 c 0.4125,0.25326 14.67758,0.61732 31.70017,0.80902 l 30.95017,0.34855 0.57257,-2.40536 0.57258,-2.40536 1.757,-1.09464 1.75699,-1.09464 3.22026,3.69605 3.22026,3.69606 48,0.49271 48,0.49272 4.29801,-0.58127 4.29801,-0.58128 1.4726,-2.84768 1.47259,-2.84769 4.07635,-2.07959 4.07634,-2.0796 1.40305,0.5384 1.40305,0.5384 0,1.62366 0,1.62365 -2,2.54259 c -1.1,1.39842 -2,2.9319 -2,3.40773 l 0,0.86514 18,0 18,0 0,-3.03138 0,-3.03139 1.51273,-0.58049 1.51274,-0.58049 1.59144,1.32078 c 0.87529,0.72643 1.98342,2.35177 2.46251,3.61187 l 0.87108,2.2911 26.87111,0 26.87111,0 3.30225,-1.64738 3.30224,-1.64737 3.20724,1.72722 3.20725,1.72721 55.89415,0.11682 c 30.74178,0.0643 57.46915,-0.0281 59.39415,-0.20513 1.925,-0.17706 8.11068,0.0237 13.74597,0.44602 l 10.24596,0.76796 1.14654,1.38149 1.14653,1.38149 -0.66131,0.66132 c -0.36373,0.36372 -2.56535,0.77828 -4.89251,0.92124 -2.32715,0.14295 -32.10662,0.28449 -66.1766,0.31451 l -61.94541,0.0546 3.69541,3.38487 c 2.03248,1.86168 3.69542,3.87085 3.69542,4.46482 l 0,1.07994 -1.84262,0.98614 -1.84261,0.98614 -3.40739,-1.70096 -3.40738,-1.70095 -1.5,-3.1905 -1.5,-3.19049 -2.15686,0.52552 -2.15686,0.52553 -1.91747,-1.0262 -1.91747,-1.0262 -30.64561,-0.70622 -30.64561,-0.70622 -1.46614,1.21678 -1.46614,1.21679 -1.99818,-1.0694 -1.99818,-1.06939 -22.56574,0 -22.56574,0 0,1.45295 c 0,0.79912 -0.51481,2.58283 -1.14403,3.96381 l -1.14402,2.51086 -3.82903,2.65352 -3.82903,2.65352 -1.52695,-0.58595 -1.52694,-0.58594 0,-1.55373 0,-1.55373 4.12736,-4.47765 4.12736,-4.47766 -42.87736,-0.14806 c -23.58255,-0.0814 -45.80236,-0.0477 -49.37736,0.0749 l -6.5,0.22296 -3.05061,1.05389 -3.05061,1.05389 -3.08854,-1.59715 -3.08853,-1.59714 -27.38778,0.0226 -27.38779,0.0226 -1.48262,-0.56893 -1.48261,-0.56894 -4.9245,0.92 -4.92449,0.91999 -2.34348,-0.89098 -2.34347,-0.89099 -53.60729,-0.0462 -53.607289,-0.0461 -0.6152,0.61531 -0.61519,0.61525 -0.1041,14.66655 c -0.0572,8.0666 -0.19874,36.49155 -0.31443,63.16655 -0.11568,26.675 -0.18133,51.76631 -0.1459,55.75847 l 0.0644,7.25846 55.249999,-0.25846 55.25,-0.25847 0.27995,-2.5 c 0.15398,-1.375 0.50005,-3.5125 0.76906,-4.75 l 0.48909,-2.25 2.03198,0 2.03197,0 1.45419,3.48036 1.45419,3.48037 2.48469,1.62803 2.48469,1.62803 50.87816,0.50959 50.87816,0.50959 0.75462,-1.221 0.75462,-1.22101 -2.21037,-4.71923 -2.21037,-4.71924 1.57346,-3.76582 1.57346,-3.76582 1.19278,0.39759 c 0.65603,0.21868 1.54077,1.04581 1.96609,1.83808 0.42532,0.79226 1.05235,4.02798 1.3934,7.19048 l 0.62009,5.75 1.93783,0 1.93783,0 1.71246,2 1.71245,2 52.46331,0 52.46331,0 2.09286,-1.96614 2.09286,-1.96615 3.46065,-0.28385 3.46064,-0.28386 0.99807,2.25 0.99808,2.25 51.19144,0 51.19144,0 1.34207,-1.34206 c 0.73813,-0.73814 2.31569,-1.86314 3.50568,-2.5 l 2.16363,-1.15794 2.54269,0 2.54268,0 1.63807,2.5 1.63806,2.5 56.88499,0 56.88499,0 0,-0.89301 c 0,-0.49116 -0.70656,-1.16415 -1.57014,-1.49553 l -1.57013,-0.60252 0.32013,-2.25447 0.32014,-2.25447 3.72181,0.11156 3.7218,0.11156 5.7782,2.88844 5.77819,2.88844 0,1.5 0,1.5 -8.5,4.23402 -8.5,4.23402 -2.5,-0.23402 -2.5,-0.23402 0.23821,-2.25 0.23821,-2.25 -55.23821,0.0222 -55.23821,0.0223 -2.5,1.95553 -2.5,1.95553 -2.42126,0.0222 -2.42126,0.0222 -1.93357,-1.75 -1.93357,-1.75 -52.07549,-0.18074 -52.07549,-0.18074 -2.45454,1.93074 -2.45454,1.93074 -2.21015,0 -2.21015,0 -1.80998,-2 -1.80998,-2 -52.29532,0 -52.29532,0 -0.79969,1.35402 c -0.43983,0.7447 -1.82149,1.89051 -3.07036,2.54624 l -2.27066,1.19223 -1.22934,-0.73504 c -0.67613,-0.40427 -1.81735,-1.55008 -2.53603,-2.54624 l -1.30671,-1.81114 -51.04208,0 -51.04209,0 -2.80242,3 -2.80242,3 -1.65516,0 -1.65516,0 -2.90338,-3.17879 -2.90337,-3.17879 -54.49826,-0.29366 -54.498269,-0.29366 -0.51516,0.83354 c -0.28334,0.45846 -0.59867,13.83356 -0.70074,29.72246 l -0.18557,28.8889 -1.09126,18.48965 -1.09125,18.48966 -1.65287,0.31496 z m -8.71958,-260.93045 1.62756,0.13618 1.20506,-1.45201 1.20507,-1.45201 -0.65001,-2.04799 -0.65001,-2.04799 -0.94663,0 c -0.52065,0 -2.50976,1.0125 -4.42024,2.25 -1.91047,1.2375 -3.47916,2.5562 -3.48597,2.93045 -0.007,0.37425 1.00012,0.87546 2.23762,1.11382 1.2375,0.23835 2.9824,0.49465 3.87755,0.56955 z m -8.62755,-11.86382 c 0.275,0 0.5,-0.225 0.5,-0.5 0,-0.275 -0.225,-0.5 -0.5,-0.5 -0.275,0 -0.5,0.225 -0.5,0.5 0,0.275 0.225,0.5 0.5,0.5 z m 263.414399,235.80056 -2.58559,0.30056 -1.12255,-1.3526 -1.12256,-1.35259 0.5716,-2.18581 0.57161,-2.18582 -1.86346,-0.5935 c -1.0249,-0.32643 -2.98845,-1.08046 -4.36345,-1.67563 l -2.5,-1.08212 -2.18133,0.22604 -2.18133,0.22604 -1.12423,-2.10064 -1.12424,-2.10065 0.66235,-4.41682 0.66234,-4.41682 1.39389,-1.7951 1.39388,-1.7951 1.95663,2.30804 1.95662,2.30804 2.15938,-1.15566 2.15937,-1.15566 1.53764,1.53764 1.53765,1.53765 -1.69587,2.58822 -1.69587,2.58822 0.64084,1.0369 0.64083,1.0369 1.82906,-1.65528 1.82906,-1.65528 2.06934,0.65679 2.06934,0.65678 0.5046,2.18335 c 0.27753,1.20084 0.39108,4.65835 0.25233,7.68335 l -0.25228,5.5 -2.5856,0.30056 z m 48.21316,0.13605 c -0.89516,-0.0349 -2.64006,-0.47036 -3.87756,-0.96777 -1.2375,-0.49742 -2.25,-1.27889 -2.25,-1.73662 0,-0.45772 0.50975,-1.34197 1.13278,-1.965 l 1.13279,-1.13279 -0.57373,-1.49509 -0.57372,-1.4951 -2.80906,-0.32212 -2.80906,-0.32212 -0.31642,-2.75 -0.31642,-2.75 -0.95502,0 -0.95502,0 -1.13907,2.5 -1.13908,2.5 -1.86424,0 -1.86423,0 -1.09826,-2.75 -1.09826,-2.75 -1.37986,3.25 -1.37986,3.25 -1.89014,0 -1.89014,0 -0.60699,-1.58179 c -0.33385,-0.86998 -0.60699,-2.86569 -0.60699,-4.4349 0,-1.56921 0.45625,-4.05315 1.0139,-5.51987 l 1.0139,-2.66675 1.7361,0.69827 c 0.95485,0.38406 2.1861,0.79479 2.7361,0.91275 0.55,0.11796 2.06612,0.57182 3.36916,1.00859 l 2.36916,0.79411 2.3355,-1.24992 2.33551,-1.24992 2.46949,1.61807 2.46949,1.61808 0.67037,2.11215 0.67038,2.11215 2.45041,-2.30205 2.45042,-2.30204 1.70505,1.07174 1.70506,1.07173 0.66872,7.39027 0.66873,7.39027 -1.04117,1.25453 -1.04117,1.25453 -1.62755,-0.0634 z m -166.00935,-2.93661 -1.71821,0 -1.2,-1.2 c -0.66,-0.66 -1.2,-1.785 -1.2,-2.5 l 0,-1.3 -2.06574,0 c -1.13616,0 -2.97304,-0.48557 -4.08196,-1.07905 l -2.01621,-1.07904 -1.35693,1.82904 -1.35692,1.82905 -1.74512,-1.71971 -1.74512,-1.71972 -0.42103,-5.82067 -0.42103,-5.82068 1.62379,-1.34762 1.62379,-1.34762 1.76811,1.60012 1.76812,1.60013 2.20098,-0.57557 2.20097,-0.57557 0.62402,1.62619 0.62403,1.62619 -1.32413,1.59548 -1.32413,1.59548 1.90339,1.39178 c 1.04686,0.76549 2.21859,1.39179 2.60384,1.39179 0.38526,0 1.00993,-1.23299 1.38816,-2.73998 0.37823,-1.50699 1.19942,-3.05625 1.82487,-3.4428 l 1.13717,-0.70282 1.28354,1.06525 1.28354,1.06524 0,3.75511 0,3.75511 1.5,1.24489 1.5,1.24489 0,1.77057 0,1.77056 -1.58179,0.60699 c -0.86998,0.33385 -2.35498,0.60699 -3.3,0.60699 z m -3.45154,-6.33333 0.66666,-0.66667 -0.66666,-0.66667 -0.66667,-0.66666 0,1.33333 0,1.33333 0.66667,-0.66666 z m 247.24323,5.12846 -5.5901,0.29514 -1.22929,-1.48121 -1.2293,-1.48122 1.0694,-1.99818 c 0.58816,-1.099 1.06939,-2.25276 1.06939,-2.56392 0,-0.31116 -0.675,-0.56574 -1.5,-0.56574 l -1.5,0 0,1.44098 c 0,0.79254 -0.43678,1.71093 -0.97063,2.04087 l -0.97063,0.59988 -2.96603,-1.53379 -2.96602,-1.53379 -1.70795,0.65541 -1.70796,0.6554 -1.35539,-1.85361 -1.35539,-1.85361 0,-2.49743 0,-2.49743 -2.15492,2.31303 -2.15492,2.31304 -6.46529,-0.51897 -6.46528,-0.51897 -2.6298,-1.95583 -2.62979,-1.95583 -0.31828,-2.14 -0.31829,-2.14 2.57818,-1.1747 2.57817,-1.17469 2.2769,2.13903 2.2769,2.13903 2.46321,0.27599 2.46321,0.27599 0,-1.98049 0,-1.98049 -4.34068,-2.39446 -4.34069,-2.39446 -1.90558,-3.12505 -1.90557,-3.12505 -0.004,-1.84571 c -0.002,-1.01514 0.75702,-3.13356 1.68683,-4.70761 l 1.69057,-2.86191 2.55943,-1.03047 c 1.40769,-0.56676 4.07132,-1.14834 5.91918,-1.29239 l 3.35976,-0.26191 1.10184,1.69723 1.10185,1.69723 -0.98001,2.80277 -0.98,2.80277 -2.7316,0.31642 -2.73159,0.31642 0,1.53966 0,1.53966 2.50071,1.96706 2.5007,1.96705 2.62203,4.47415 2.62202,4.47415 1.43398,-2.04729 1.43397,-2.04728 1.32085,0 c 0.72647,0 1.88105,0.675 2.56574,1.5 l 1.24489,1.5 1.75511,0 1.75511,0 1.09397,1.31815 1.09397,1.31815 -1.57376,2.24685 -1.57376,2.24685 1.77078,1.29483 1.77077,1.29482 2.27307,-2.60983 2.27307,-2.60982 2.80839,1.5312 2.80839,1.53119 0.30875,3.15695 0.30874,3.15695 2.19126,0.31186 2.19125,0.31185 0,2 0,2 -5.5901,0.29513 z m 185.71766,0.0302 c -0.62016,-0.0961 -3.00501,-0.34525 -5.29968,-0.55369 l -4.17211,-0.37898 -1.14728,-1.38239 -1.14728,-1.38239 1.02259,-1.91072 1.02259,-1.91073 -1.12502,-1.12502 -1.12503,-1.12503 -1.10329,2.21297 -1.10328,2.21297 -1.79576,0.34584 -1.79576,0.34583 -0.54576,-2.08698 c -0.30016,-1.14787 -0.91671,-2.08701 -1.3701,-2.08701 -0.4534,0 -1.10247,0.45 -1.44239,1 l -0.61803,1 -1.94099,0 -1.94098,0 0,-1.5 0,-1.5 -0.88337,0 -0.88337,0 -0.52301,2 -0.52301,2 -2.46862,0 -2.46862,0 -0.625,-3.125 c -0.34375,-1.71875 -0.625,-4.39219 -0.625,-5.94098 l 0,-2.81599 1.0438,-0.6451 1.04381,-0.64511 1.20619,0.95104 c 0.66341,0.52307 3.04405,1.18398 5.2903,1.46868 l 4.08411,0.51764 1.68607,-0.94357 1.68608,-0.94358 1.87227,0.59424 1.87228,0.59424 1.29581,3.12837 1.29582,3.12838 0.91739,-2.05597 0.9174,-2.05596 2.14434,-0.96182 2.14433,-0.96183 2.75603,0.95609 2.75603,0.95608 0.579,2.30694 0.579,2.30693 -1.12021,2.09314 -1.12022,2.09314 1.41274,0 1.41274,0 1.24489,1.5 1.24489,1.5 -1.24489,1.5 -1.24489,1.5 -1.12755,-0.17471 z m -136.12756,-0.82533 -2.11774,0 -1.94113,-1.4391 -1.94113,-1.43909 1.36007,-2.22358 1.36006,-2.22358 -2.29477,-1.73095 -2.29478,-1.73095 1.7376,-2.65191 1.7376,-2.65191 2.4175,-1.10149 2.41749,-1.10148 1.52962,1.26946 1.52961,1.26947 0,3.81246 0,3.81245 1.059,2.78538 1.059,2.78537 -1.75013,1.27973 -1.75013,1.27972 -2.11774,0 z m 78.87244,-1.01365 -3.12755,0.0136 -1.26947,-1.52961 -1.26946,-1.52962 1.10931,-2.43467 1.10931,-2.43468 -0.96229,-0.59473 -0.96229,-0.59472 0,-1.9058 0,-1.9058 2,-1.07037 2,-1.07037 1.97708,1.0581 c 1.0874,0.58196 2.4374,1.91821 3,2.96945 0.56261,1.05123 1.02292,2.84092 1.02292,3.97708 l 0,2.06574 1.5,0 1.5,0 0,1.88337 0,1.88337 -2.25,0.60297 c -1.2375,0.33164 -3.6574,0.60913 -5.37756,0.61664 z m -243.75793,-3.98635 -1.24033,0 -2.74262,-2.86268 -2.74261,-2.86267 2.15909,-4.14232 c 1.18751,-2.27827 2.63057,-4.4337 3.20681,-4.78984 l 1.04772,-0.64752 2.82181,3.40251 2.82182,3.40252 0.0269,1.61514 0.0269,1.61514 -2.07258,2.63486 -2.07258,2.63486 -1.24033,0 z m 202.51305,-0.0153 c -0.34516,-0.008 -1.17261,-0.3617 -1.83877,-0.78505 -0.66617,-0.42335 -1.92751,-2.48406 -2.80298,-4.57936 l -1.59176,-3.80963 1.57603,-2.40532 1.57603,-2.40533 1.32196,0 1.32195,0 1.65499,1.82874 1.65499,1.82874 0,1.77825 0,1.77825 1.58179,-0.60699 c 0.86998,-0.33385 1.76998,-0.60699 2,-0.60699 0.23001,-10e-6 0.41821,-1.27157 0.41821,-2.8257 l 0,-2.82568 -2.25,-2.04935 c -1.2375,-1.12715 -3.25719,-2.56858 -4.48819,-3.20318 l -2.2382,-1.15383 -0.63575,-2.53306 -0.63576,-2.53306 1.78552,-3.95957 1.78552,-3.95958 2.58843,-0.5389 c 1.42364,-0.2964 3.36982,-0.96172 4.32486,-1.4785 0.95504,-0.51678 2.58744,-0.9396 3.62756,-0.9396 l 1.89112,0 1.2109,1.45904 1.21089,1.45904 -0.67016,3.05125 -0.67017,3.05124 -1.48773,1.48773 -1.48773,1.48773 -1.86481,-0.99801 c -1.02565,-0.54891 -2.1194,-0.99802 -2.43056,-0.99802 -0.31116,0 -0.56574,0.67086 -0.56574,1.49081 l 0,1.4908 3.46858,2.2592 3.46858,2.25919 1.67765,3.09928 1.67766,3.09928 -0.67307,2.68174 -0.67307,2.68174 -3.22317,1.96524 -3.22316,1.96524 -2.62756,0.004 -2.62755,0.003 -1.24489,1.5 c -0.68469,0.825 -1.52729,1.49311 -1.87244,1.48469 z m -49.18979,-0.9847 -2.12501,0 -0.52301,-2 c -0.28766,-1.1 -0.71136,-2 -0.94156,-2 -0.23021,0 -1.57559,0.75812 -2.98975,1.68471 l -2.57119,1.68471 -1.65074,-2.18845 -1.65075,-2.18844 -1.25135,2.00373 -1.25136,2.00374 -1.88454,0 -1.88453,0 -0.60699,-1.58179 c -0.33385,-0.86998 -0.60699,-3.31842 -0.60699,-5.44098 l 0,-3.8592 0.78106,-0.48272 0.78106,-0.48272 8.55536,1.26359 c 4.70544,0.69497 9.02037,1.55098 9.58873,1.90225 0.56836,0.35126 1.59321,1.99023 2.27746,3.64215 l 1.24409,3.0035 -0.58249,1.51796 -0.5825,1.51796 -2.125,0 z m 81.06223,-0.27719 c -0.825,0.13379 -2.30469,-0.23109 -3.2882,-0.81085 l -1.78819,-1.05409 -2.89227,0.63525 -2.89227,0.63525 -1.11667,-2.08652 -1.11668,-2.08652 0.29714,-6.21762 0.29714,-6.21762 1.77479,-0.33815 1.7748,-0.33814 1.07303,3.0781 1.07303,3.0781 0.84316,0 c 0.46373,0 1.12127,-0.45 1.46119,-1 l 0.61803,-1 2.38197,0 2.38197,0 0.70283,1.13721 0.70284,1.13722 -2.39382,1.82508 -2.39382,1.82508 2.3069,1.63426 2.3069,1.63426 -0.3069,2.14323 -0.3069,2.14323 -1.5,0.24324 z m 22.01955,0.27719 c -0.46297,0 -2.00676,-1.38453 -3.43066,-3.07673 -1.42389,-1.69219 -2.58889,-3.43709 -2.58889,-3.87755 0,-0.44046 0.70467,-1.38566 1.56594,-2.10044 0.86126,-0.71479 2.23766,-2.59859 3.05866,-4.18623 l 1.49272,-2.88661 1.1454,0.3818 1.1454,0.3818 0.82453,3.18198 0.82453,3.18198 1.91239,0 1.9124,0 0.56226,0.90976 0.56226,0.90976 -0.55837,1.34024 c -0.3071,0.73713 -2.13976,2.35274 -4.07258,3.59024 -1.93282,1.2375 -3.89302,2.25 -4.35599,2.25 z m -129.85844,-1.06103 c -0.36361,-0.0336 -2.19855,-1.6178 -4.07763,-3.52053 l -3.41653,-3.4595 2.16653,-2.01843 c 1.19158,-1.11013 2.16652,-2.45089 2.16652,-2.97947 l 0,-0.96104 2.04797,0 2.04796,0 2.42043,2.75 c 1.33124,1.5125 2.43466,3.05297 2.45204,3.42327 0.0174,0.37031 -1.1334,2.05781 -2.55729,3.75 -1.4239,1.6922 -2.8864,3.04927 -3.25,3.0157 z m -286.14324,-2.00961 -2.51787,-0.0706 -4.21716,-1.87441 -4.21715,-1.87441 -0.64069,-2.55272 -0.64069,-2.55272 0.57646,-1.50223 0.57646,-1.50224 1.39388,0 1.39388,0 3.82246,3.03771 3.82245,3.0377 1.56505,-0.3014 1.56505,-0.3014 0,-3.48436 0,-3.48436 -3.73139,-1.99991 -3.73139,-1.9999 -1.16963,-2.82374 -1.16963,-2.82374 1.63811,-3.43515 1.6381,-3.43514 3.26292,-1.98942 3.26291,-1.98941 3.17857,-0.004 3.17857,-0.004 1.69307,1.69307 1.69307,1.69307 1.96177,-2.69307 1.96176,-2.69307 1.94798,0 1.94798,0 0.58032,1.51228 0.58031,1.51228 -0.66651,4.44463 -0.66651,4.44462 -1.94519,2.29309 -1.94519,2.29359 -1.86341,-2.1921 -1.86341,-2.1921 -2.01789,0.52769 -2.0179,0.52769 -2.16345,-2.32219 -2.16345,-2.32219 -0.93993,1.4866 c -0.51697,0.81763 -0.94683,2.0091 -0.95525,2.64771 l -0.0153,1.1611 2.9756,2.50381 2.9756,2.5038 1.65929,3.47957 1.65929,3.47957 -0.64695,2.57766 -0.64695,2.57767 -3.72008,2.52785 -3.72007,2.52786 -2.51786,-0.0706 z m 123.83179,-2.00822 -3.44292,0.7765 -4.95337,-1.26041 c -2.72435,-0.69323 -5.12504,-1.09103 -5.33485,-0.884 -0.20982,0.20702 -1.22232,-0.0736 -2.25,-0.6236 l -1.86852,-1 0,-2.39339 0,-2.39338 1.52862,-1.52862 1.52862,-1.52862 2.22138,0.81604 2.22138,0.81603 0.31933,2.13951 0.31934,2.1395 2.50388,0.62843 2.50388,0.62844 0.80044,-0.87679 c 0.44025,-0.48223 1.03666,-2.76827 1.32537,-5.0801 l 0.52492,-4.20332 -4.85176,-1.6115 -4.85177,-1.61149 -0.57773,-1.82028 -0.57773,-1.82027 1.20262,-2.63947 1.20262,-2.63947 3.35136,-2.07125 3.35135,-2.07125 4.95342,0.0384 4.95343,0.0384 0.58253,-0.94256 c 0.32039,-0.51847 1.23098,-0.94262 2.02352,-0.94262 l 1.44098,0 0,2.19625 0,2.19625 -2.66886,3.85117 -2.66887,3.85117 -2.04014,-0.29742 -2.04014,-0.29742 -0.541,-2.30902 -0.54099,-2.30901 -1,-0.19099 -1,-0.19098 -0.30916,3.19373 -0.30916,3.19372 2.8762,1.48735 2.8762,1.48734 1.80691,4.007 1.80691,4.00701 -0.61511,2.31193 c -0.33831,1.27155 -1.00326,2.90696 -1.47766,3.63424 l -0.86255,1.32232 -3.44292,0.7765 z m 126.9841,-16.92114 -1.89653,0 -0.59624,-1.55378 -0.59624,-1.55377 1.70067,-3.77141 c 0.93537,-2.07428 2.76254,-5.08758 4.06037,-6.69623 l 2.3597,-2.92481 1.81726,1.10213 1.81725,1.10213 0.33199,2.24281 0.332,2.24282 -1.21736,2.93895 -1.21735,2.93895 -2.4995,1.9661 -2.4995,1.96611 -1.89652,0 z m -113.32208,-3 c -0.64809,0 -1.47835,-0.3 -1.84501,-0.66667 -0.36667,-0.36666 -0.66667,-2.18112 -0.66667,-4.03212 l 0,-3.36545 1.45485,-3.48194 1.45484,-3.48194 1.46702,-0.56294 1.46701,-0.56295 2.07814,1.11219 2.07814,1.11219 0,2.01447 c 0,1.10797 -0.72927,3.45463 -1.62059,5.21482 -0.89132,1.76019 -2.31107,3.98784 -3.15499,4.95034 -0.84392,0.9625 -2.06465,1.75 -2.71274,1.75 z m 244.71527,-0.079 c -0.39982,-0.0434 -1.28945,-0.30592 -1.97695,-0.58333 l -1.25,-0.50439 0.0153,-5.16666 0.0153,-5.16667 0.84777,-1.33749 0.84778,-1.33749 2.38691,0.33749 2.38691,0.33749 0.31149,4.33168 0.31149,4.33169 -1.58454,2.41831 c -0.8715,1.33008 -1.91167,2.38279 -2.31149,2.33937 z m -128.63969,-31.921 c -0.7383,0 -1.84911,-0.61058 -2.46845,-1.35684 l -1.12607,-1.35684 0.63279,-3.16397 c 0.34804,-1.74018 0.98406,-3.38106 1.41339,-3.6464 0.42933,-0.26534 1.50009,-0.20634 2.37947,0.13111 l 1.59887,0.61354 0.5764,2.29656 0.5764,2.29656 -1.12021,2.09314 -1.12022,2.09314 -1.34237,0 z m 120.82523,-8.20174 -2.0875,0.29825 -1.08292,-1.30483 -1.08291,-1.30483 0.67042,-5.49343 0.67042,-5.49342 2.21465,-0.31492 2.21466,-0.31492 0.60114,2.39513 c 0.33063,1.31733 0.45903,4.38404 0.28534,6.81492 l -0.31579,4.41979 -2.08751,0.29826 z m -353.05347,-2.79826 c -0.68254,0 -1.55982,-0.51589 -1.94951,-1.14641 l -0.70852,-1.14642 0.18256,-5.58663 0.18255,-5.58664 1.03794,-1.01695 1.03793,-1.01695 1.92901,2.36078 1.92902,2.36079 0,4.18921 0,4.18922 -1.2,1.2 c -0.66,0.66 -1.75844,1.2 -2.44098,1.2 z m 232.54902,-0.22081 -1.59196,0.30659 -1.21915,-1.46899 -1.21915,-1.46898 0.31111,-4.32391 0.31111,-4.3239 2.5,0 2.5,0 0,5.4863 0,5.48631 -1.59196,0.30658 z m -119.91181,-9.77919 c -0.50922,0 -1.41573,-0.91532 -2.01445,-2.03404 l -1.08858,-2.03404 0.3034,-4.71596 0.3034,-4.71596 2.12535,-0.30322 2.12536,-0.30321 1.62464,1.62464 1.62465,1.62465 0,3.24001 0,3.24001 -2.03896,2.18856 c -1.12142,1.20371 -2.45559,2.18856 -2.96481,2.18856 z m 238.13525,-5 c -0.98898,0 -2.09815,-0.3 -2.46481,-0.66667 l -0.66667,-0.66666 0,-4.26824 0,-4.26823 0.97525,-2.5651 0.97525,-2.5651 0.95332,0 c 0.52433,0 1.66047,0.70714 2.52475,1.57143 l 1.57143,1.57143 0,3.99431 0,3.99431 -1.03518,1.93426 -1.03519,1.93426 -1.79815,0 z m -117.22344,-4.21683 -1.59196,0.30261 -1.35628,-1.63422 -1.35627,-1.63421 0.24223,-3.65867 0.24224,-3.65868 1.37846,-1.38674 1.37846,-1.38675 1.6278,0.62465 1.62781,0.62465 -0.30027,5.75238 -0.30026,5.75237 -1.59196,0.30261 z m -234.00422,-1.78317 -0.95332,0 -0.97525,-2.5651 c -0.53639,-1.4108 -0.97525,-3.849 -0.97525,-5.41821 0,-1.56921 0.27314,-3.56492 0.60699,-4.4349 l 0.60699,-1.58179 1.92439,0 1.9244,0 0.38524,1.25 c 0.21189,0.6875 0.64792,3.1302 0.96896,5.42823 l 0.58371,4.17823 -1.57177,1.57177 c -0.86447,0.86447 -2.00076,1.57177 -2.52509,1.57177 z m 114.39238,-7.26103 -1.20381,0.3969 -0.84022,-3.24254 -0.84023,-3.24253 0.54403,-4.0754 0.54403,-4.0754 2.5,0 2.5,0 0.25998,4.5 0.25998,4.5 -1.25998,2.42103 c -0.69299,1.33157 -1.80169,2.59964 -2.46378,2.81794 z m 238.09564,-2.73897 -1.34573,0 -1.70209,-2.5977 -1.70208,-2.59771 -0.071,-4.86522 -0.071,-4.86522 1.67246,-1.67382 1.67246,-1.67382 1.56267,0.59965 1.56267,0.59966 -0.11635,8.53709 -0.11634,8.53709 -1.34573,0 z m -119.84804,-8 -1.5057,0 -0.68584,-2.73261 c -0.37721,-1.50294 -0.72328,-5.42713 -0.76905,-8.72042 l -0.0832,-5.98781 1.88017,-0.37797 1.88018,-0.37798 0.82803,1.33979 c 0.45541,0.73687 1.10673,3.59365 1.44738,6.34839 l 0.61934,5.00861 -1.0528,2.75 -1.0528,2.75 -1.5057,0 z m -231.59482,-3 c -0.44337,0 -1.51327,-0.70714 -2.37755,-1.57143 l -1.57143,-1.57143 0,-3.99431 0,-3.99431 1.03518,-1.93426 1.03519,-1.93426 1.44176,0 1.44176,0 1.58388,2.41731 1.58388,2.4173 -0.69121,3.8327 c -0.38017,2.10798 -1.13765,4.39519 -1.68327,5.08269 -0.54563,0.6875 -1.35482,1.25 -1.79819,1.25 z m 115.71088,-6 c -0.69292,0 -1.79986,-0.54 -2.45986,-1.2 l -1.2,-1.2 0,-5.10887 0,-5.10887 1.44143,-1.94113 1.44143,-1.94113 1.80857,1.10085 1.80857,1.10085 0.33267,3.39915 0.33266,3.39915 -1.1228,3.75 -1.12281,3.75 -1.25986,0 z m 233.34483,-10 -1.76205,0 -1.21528,-2.93395 -1.21528,-2.93395 0.65824,-2.99695 0.65824,-2.99695 1.42298,-1.18098 1.42299,-1.18097 1.51274,0.58049 1.51273,0.58049 -0.0136,4.28139 c -0.008,2.35476 -0.285,5.29388 -0.61664,6.53138 l -0.60297,2.25 -1.76205,0 z m -347.90851,-4 c -0.52433,0 -1.66047,-0.70714 -2.52475,-1.57143 l -1.57143,-1.57143 0.0153,-5.17857 0.0153,-5.17857 0.84777,-1.33749 0.84778,-1.33749 2.38691,0.33749 2.38691,0.33749 0.29582,5.06438 0.29582,5.06438 -1.02107,2.68562 -1.02107,2.68562 -0.95332,0 z m 230.48759,-2 c -0.80616,0 -1.67401,-0.3375 -1.92857,-0.75 -0.25456,-0.4125 -0.61862,-3.66078 -0.80902,-7.21839 l -0.34618,-6.4684 1.9339,-0.39034 1.93391,-0.39035 1.31609,1.79987 1.3161,1.79987 0,3.24377 c 0,1.78407 -0.43886,4.39807 -0.97525,5.80887 l -0.97525,2.5651 -1.46573,0 z m -113.22979,-2 -2.35398,0 -2,-2 -2,-2 0.0153,-2.75 c 0.008,-1.5125 0.34592,-3.24513 0.75,-3.8503 0.40408,-0.60516 1.71761,-1.61766 2.91895,-2.25 1.20134,-0.63233 2.88884,-1.1497 3.75,-1.1497 l 1.56574,0 2.04939,2.04939 2.04938,2.04938 5.38868,-2.63643 5.38867,-2.63643 1.96956,0.62511 1.96956,0.62511 0.65357,1.70318 0.65357,1.70318 -1.93834,1.56957 -1.93834,1.56957 -5.78586,1.388 -5.78586,1.38801 -2.48301,2.30118 -2.48302,2.30118 -2.35397,0 z m -11.34687,-10 c -0.45613,0 -1.99432,-1.38453 -3.41822,-3.07673 l -2.58889,-3.07672 0,-2.45466 0,-2.45466 1.6787,-0.64418 1.67871,-0.64418 3.32129,3.84218 3.3213,3.84217 0,1.7264 0,1.7264 -1.58179,0.60699 c -0.86998,0.33385 -1.95498,0.60699 -2.4111,0.60699 z m 39.9157,-4 -1.98558,0 -0.63859,-1.66413 -0.63858,-1.66412 1.91997,-3.56199 1.91997,-3.56199 2.43667,-1.20916 2.43667,-1.20917 1.81333,0.97046 c 0.99733,0.53376 1.81333,1.33992 1.81333,1.79148 0,0.45156 -1.59561,2.91073 -3.54581,5.46482 l -3.5458,4.6438 -1.98558,0 z m 203.06506,-1 c -0.51797,0 -1.65802,-1.09315 -2.53345,-2.42923 l -1.59169,-2.42922 0.31863,-3.32078 0.31864,-3.32077 2.45524,0 2.45524,0 0.79334,3.81839 0.79334,3.81839 -1.03376,1.93161 c -0.56857,1.06239 -1.45756,1.93161 -1.97553,1.93161 z m -349.98787,-3 c -0.33,0 -1.14,-0.54 -1.8,-1.2 l -1.2,-1.2 0,-4.60887 0,-4.60887 1.39179,-1.90338 1.39178,-1.90339 1.60822,1.3347 1.60821,1.3347 0,5.17755 0,5.17756 -1.2,1.2 c -0.66,0.66 -1.47,1.2 -1.8,1.2 z m 231.95014,-1 c -0.44274,0 -1.76308,-1.21802 -2.93408,-2.70672 l -2.12911,-2.70672 0.56451,-2.24918 c 0.31048,-1.23704 1.01222,-3.42676 1.55944,-4.86604 l 0.99493,-2.61687 1.74708,0.33476 1.74709,0.33475 0.86487,5.74714 0.86487,5.74714 -1.23732,1.49087 c -0.68052,0.81998 -1.59955,1.49087 -2.04228,1.49087 z m -133.83667,-3 c -0.3529,0 -1.9853,-0.96654 -3.62755,-2.14787 -1.64226,-1.18133 -4.04216,-3.44282 -5.33312,-5.02553 l -2.34719,-2.87764 0.56581,-1.47448 0.56581,-1.47448 2.08105,0 c 1.14457,0 3.31911,0.64023 4.8323,1.42273 l 2.75125,1.42273 1.88519,3.50057 1.88518,3.50057 -1.30855,1.5767 c -0.71969,0.86719 -1.59728,1.5767 -1.95018,1.5767 z m 64.38653,-7.52872 c -1.1,0.17746 -2.5625,0.10652 -3.25,-0.15765 l -1.25,-0.4803 0,-1.96632 c 0,-1.08148 0.62893,-3.18255 1.39762,-4.66903 0.76869,-1.48649 2.23119,-3.45536 3.25,-4.37528 l 1.85238,-1.67258 3.48775,0.17494 3.48776,0.17494 0.3332,1.73771 0.33321,1.73772 -3.24048,4.51228 c -1.78226,2.48176 -3.5017,4.54573 -3.82096,4.5866 -0.31926,0.0409 -1.48048,0.21951 -2.58048,0.39697 z m 188.46729,-0.47128 -1.92118,0 -1.59413,-2.43294 -1.59412,-2.43294 1.01647,-1.89931 c 0.55906,-1.04461 1.7102,-2.47504 2.55809,-3.17872 l 1.54161,-1.27942 2.54699,0.63925 2.547,0.63926 1.18004,2.58991 1.18005,2.58992 -2.76982,2.38249 -2.76982,2.3825 -1.92118,0 z m -9.50308,-1 -2.32181,0 -3.5712,-3.36808 -3.5712,-3.36807 0,-1.13193 0,-1.13192 -1.55188,0 c -0.85354,0 -3.32902,-1.0125 -5.50108,-2.25 l -3.94919,-2.25 -0.56347,-1.74105 -0.56348,-1.74105 0.62357,-1.00895 0.62356,-1.00895 2.19099,0.004 2.19098,0.004 3.22316,1.96524 3.22317,1.96524 0.63524,2.53102 0.63525,2.53102 1.50543,0 c 0.82799,0 3.23337,0.97115 5.34528,2.15811 l 3.83984,2.15811 0.51493,1.34189 0.51493,1.34189 -0.5756,1.5 -0.57561,1.5 -2.32181,0 z m -253.86824,-7 -2.28599,0 -1.4675,-1.75 c -0.80713,-0.9625 -2.22687,-2.97167 -3.15499,-4.46482 l -1.68749,-2.71481 0,-1.9282 0,-1.92819 1.51185,-0.58015 1.51185,-0.58015 2.36641,1.07821 2.36642,1.07821 2.24442,4.79193 2.24442,4.79193 -0.6817,1.10302 -0.6817,1.10302 -2.286,0 z m 142.92555,-1 -1.40811,0 -1.43909,-2.05458 -1.43908,-2.05458 0.80464,-3.56768 c 0.44256,-1.96223 1.25938,-4.02242 1.81517,-4.57821 l 1.01052,-1.01052 1.4257,0.5471 1.42571,0.5471 0.6587,4.1193 0.65871,4.1193 -1.05238,1.96639 -1.05238,1.96638 -1.40811,0 z m -230.37822,-2 c -0.40882,0 -1.2833,-0.54 -1.9433,-1.2 l -1.2,-1.2 0,-3.86574 0,-3.86574 1.03518,-1.93426 1.03519,-1.93426 1.85782,0 1.85783,0 0.60699,1.58179 c 0.33385,0.86998 0.60699,3.01985 0.60699,4.77749 l 0,3.19571 -1.5567,2.2225 c -0.85619,1.22238 -1.89119,2.22251 -2.3,2.22251 z m 287.48477,-28 -2.25389,0 -2.5649,-2.75 c -1.4107,-1.5125 -3.11382,-3.815 -3.78471,-5.11666 l -1.21981,-2.36667 1.53764,-1.53764 1.53765,-1.53765 2.56186,1.6786 2.56186,1.6786 2.5928,3.91799 2.59281,3.91799 -0.65371,1.05772 -0.6537,1.05772 -2.2539,0 z m -225.0692,-7.03041 c -0.58238,-0.0167 -1.84954,-0.49086 -2.8159,-1.05363 l -1.75704,-1.02321 -1.87091,-3.69638 -1.8709,-3.69637 0.84571,-2.25 0.84572,-2.25 2.02201,0 2.02201,0 3.72326,5.60763 3.72326,5.60764 -1.90417,1.39236 c -1.0473,0.76581 -2.38067,1.37869 -2.96305,1.36196 z m 169.63211,-0.9849 c -0.38004,-0.008 -1.22533,-0.35508 -1.87842,-0.77035 -0.65309,-0.41528 -1.69544,-2.0912 -2.31634,-3.72429 l -1.12891,-2.96924 0.63484,-3.38396 0.63483,-3.38395 -3.31849,0.65485 c -1.82517,0.36017 -4.21849,0.75327 -5.31849,0.87355 l -2,0.2187 0,-3 0,-3 3.94091,-0.32175 3.94091,-0.32174 2.88582,-2.42826 2.88581,-2.42825 2.44471,0 2.44472,0 1.0255,2.25 1.02551,2.25 4.92461,0.20961 4.9246,0.20961 3.09044,1.59812 3.09043,1.59813 -0.31198,2.19226 -0.31199,2.19227 -4.04079,0.29728 -4.04079,0.29727 -3.73884,-2.53724 -3.73884,-2.53725 -2.00757,1.23997 -2.00757,1.23997 0.1955,5.58935 0.19551,5.58935 -0.71732,1.16065 c -0.39453,0.63836 -1.02827,1.15376 -1.40831,1.14534 z m -30.88798,-0.98469 -2.303,0 0,-1.54966 c 0,-0.85231 0.70412,-2.91128 1.56471,-4.57548 l 1.56472,-3.02583 3.17125,-1.33341 3.17126,-1.33341 1.76403,0.94408 1.76403,0.94408 0,1.8783 0,1.87831 -4.197,3.08651 -4.19701,3.08651 -2.30299,0 z m 66.45812,-3 -3.85662,0 -2.47774,-2.67353 -2.47774,-2.67353 0.33501,-1.00502 c 0.18425,-0.55277 1.05384,-1.45846 1.93241,-2.01265 l 1.59741,-1.00762 3.99591,1.19721 3.99592,1.1972 2.34716,1.98831 2.34716,1.9883 -1.94113,1.50066 -1.94113,1.50067 -3.85662,0 z m -266.88974,-1.20905 -1.62862,0.30895 -1.69903,-1.69903 -1.69902,-1.69902 0.56399,-2.10093 c 0.31019,-1.1555 0.57014,-3.33842 0.57765,-4.85092 l 0.0136,-2.75 1.87756,0 1.87755,0 1.18041,1.42231 1.18041,1.4223 -0.30797,4.8187 -0.30796,4.8187 -1.62862,0.30894 z m 48.52649,-9.02611 -1.89787,0.26485 -2.93257,-1.9546 -2.93258,-1.9546 -1.28199,-2.31025 c -0.70509,-1.27063 -1.29794,-3.11186 -1.31742,-4.09162 l -0.0354,-1.78139 1.40305,-0.5384 1.40305,-0.5384 4.08232,2.08265 4.08233,2.08265 1.69581,2.58812 1.6958,2.58813 -1.03331,1.64901 -1.03331,1.64901 -1.89787,0.26484 z m -49.97543,-9.76484 c -0.64765,0 -1.73412,-0.67062 -2.41437,-1.49027 l -1.23681,-1.49028 -0.52127,-6.49383 -0.52126,-6.49383 1.17869,-1.42024 1.1787,-1.42024 -0.61539,-2.4519 -0.61539,-2.4519 1.64376,-1.64375 1.64376,-1.64376 1.92857,0 1.92857,0 2,2 2,2 2.98422,0 2.98423,0 3.18272,2.84376 3.18272,2.84376 -0.63556,1.65624 -0.63556,1.65624 -2.39184,0 -2.39184,0 -3.77813,-2.56391 -3.77814,-2.56392 -2.86141,1.18524 c -1.57378,0.65188 -2.86141,1.30068 -2.86141,1.44179 0,0.1411 0.675,1.87205 1.5,3.84656 l 1.5,3.59 0,3.33212 0,3.33212 -1.2,1.2 c -0.66,0.66 -1.7299,1.2 -2.37756,1.2 z m 32.57756,-3.29149 -1.5,0.22895 -3.6282,-1.93013 -3.6282,-1.93014 -0.59042,-1.53859 -0.59041,-1.5386 0.5756,-1.5 0.57561,-1.5 2.31628,0 2.31629,0 3.12888,2.63278 3.12887,2.63277 -0.30215,2.10701 -0.30215,2.10701 -1.5,0.22894 z m -121.49449,-3.70851 c -0.74946,0 -2.0698,-0.70714 -2.93408,-1.57143 -0.86429,-0.86428 -1.56454,-1.87678 -1.55612,-2.25 0.008,-0.37321 0.34592,-1.18062 0.75,-1.79424 0.40408,-0.61361 2.62926,-2.07611 4.94485,-3.25 l 4.21016,-2.13433 3.98082,0 3.98083,0 0.62356,1.00895 0.62357,1.00895 -0.59459,1.87336 -0.59458,1.87337 -6.03588,2.61768 c -3.31973,1.43973 -6.64907,2.61769 -7.39854,2.61769 z m 28.94962,-10.20116 -5.04486,2.01026 -1.70514,-0.95424 -1.70513,-0.95424 0.0222,-1.70031 0.0222,-1.70031 1.77847,-2.31152 1.77847,-2.31152 4.23897,-0.95243 4.23897,-0.95243 1.96032,1.04913 1.96033,1.04914 0,2.35782 0,2.35783 -1.25,0.50128 c -0.6875,0.2757 -3.52019,1.4059 -6.29487,2.51154 z m 21.37259,-3.49367 c -2.47041,0.10716 -5.26858,0.0443 -6.21816,-0.13975 l -1.72649,-0.33459 0.30846,-2.14038 0.30847,-2.14039 2.5,-1.26029 2.5,-1.26029 6.19098,-0.0147 6.19099,-0.0147 0.56226,0.90976 0.56226,0.90976 -0.5751,1.49868 -0.5751,1.49869 -2.76846,1.14673 -2.76845,1.14673 -4.49166,0.19482 z m 24.56947,-1.30517 -5.45996,0 -0.62776,-1.63592 -0.62776,-1.63593 1.01214,-1.61407 1.01214,-1.61408 5.22818,-0.30507 5.22818,-0.30508 1.41883,1.17752 c 0.78035,0.64764 1.41882,1.54028 1.41882,1.98365 0,0.44337 -0.70714,1.51327 -1.57143,2.37755 l -1.57143,1.57143 -5.45995,0 z m -35.2902,-102 c -0.49116,0 -1.15203,-0.675 -1.46862,-1.5 l -0.5756,-1.5 1.46861,0 1.46862,0 0,1.5 0,1.5 -0.89301,0 z"
       id="path3046"
       inkscape:connector-curvature="0" />
  </g>
</svg>
